<?xml version="1.0" encoding="UTF-8"?>
<svg version="1.1" xmlns="http://www.w3.org/2000/svg" width="1000" height="1193">
<path d="M0 0 C39.27 0 78.54 0 119 0 C138.38536467 64.99798744 138.38536467 64.99798744 147.50337601 96.08050919 C149.87866931 104.17549683 152.25797954 112.2693057 154.63671875 120.36328125 C155.03284017 121.71131993 155.03284017 121.71131993 155.43696404 123.08659172 C161.28946122 143.00193696 167.17177103 162.90843438 173.0625 182.8125 C173.4087719 183.98256969 173.4087719 183.98256969 173.76203918 185.17627716 C176.50691074 194.45118188 179.25287013 203.72576391 182 213 C184.20207147 204.54606681 186.06176208 196.06402809 187.73632812 187.49121094 C187.99451964 186.18125329 188.25298137 184.87134889 188.51168823 183.56149292 C189.20918097 180.02603313 189.90291667 176.48984574 190.59594917 172.95350933 C191.33595838 169.18099215 192.07950615 165.40917234 192.82263184 161.63726807 C194.2391562 154.44459108 195.65254975 147.25130262 197.06480932 140.05778718 C198.62877811 132.09230124 200.19621116 124.12749852 201.76397514 116.16275883 C202.99283977 109.91928957 204.22106434 103.67569435 205.44931412 97.43210411 C205.75376243 95.88451069 206.05822358 94.3369198 206.3626976 92.78933144 C207.41542172 87.43841803 208.46774997 82.08742694 209.51953125 76.73632812 C209.66571836 75.99258218 209.81190548 75.24883623 209.96252251 74.48255253 C211.95901459 64.32280562 213.94490481 54.1610364 215.92273045 43.99764013 C216.8200691 39.38879855 217.71992074 34.78044676 218.61930847 30.1720047 C219.32866611 26.53055731 220.03383253 22.88831441 220.7388916 19.24603271 C221.16099529 17.08227337 221.58330455 14.9185541 222.00585938 12.75488281 C222.19522568 11.76950279 222.38459198 10.78412277 222.57969666 9.76888275 C222.75364456 8.88280586 222.92759247 7.99672897 223.10681152 7.08380127 C223.25626976 6.313633 223.405728 5.54346474 223.55971527 4.74995804 C224 3 224 3 225 2 C228.1050725 1.90466347 231.18786458 1.87448874 234.29321289 1.88647461 C235.26871597 1.88632858 236.24421906 1.88618256 237.24928284 1.8860321 C240.49042953 1.88673167 243.73151954 1.89452609 246.97265625 1.90234375 C249.21325143 1.90420778 251.45384702 1.90563175 253.69444275 1.90663147 C259.6045951 1.91045787 265.51472305 1.9202892 271.42486572 1.93133545 C277.45055817 1.94154694 283.47625453 1.94612853 289.50195312 1.95117188 C301.33464616 1.96191136 313.16732106 1.97898924 325 2 C325.21670837 3.12081215 325.21670837 3.12081215 325.43779469 4.26426697 C329.01245176 22.75202458 332.58805288 41.23959941 336.16460896 59.72698975 C337.89443527 68.66865782 339.62397824 77.61038049 341.3527832 86.55224609 C343.35537687 96.910006 345.35875313 107.26761428 347.36328125 117.625 C347.60869589 118.89305607 347.60869589 118.89305607 347.85906839 120.18672943 C353.84941399 151.1356891 359.89665979 182.0731128 366 213 C370.18235361 200.01107848 374.07358514 186.96522641 377.76171875 173.828125 C378.3073422 171.89344007 378.85325447 169.95883658 379.39942932 168.02430725 C380.56149085 163.90644163 381.7218301 159.78809649 382.8807373 155.66934204 C385.65610256 145.80616093 388.44049413 135.94552587 391.22376633 126.08457375 C392.18902828 122.66433745 393.15393518 119.24400113 394.11880493 115.82365417 C405.01701343 77.19814838 416.02076442 38.60252508 427 0 C465.61 0 504.22 0 544 0 C540.62521329 12.37421794 540.62521329 12.37421794 538.88134766 17.73486328 C538.48804764 18.94827896 538.09474762 20.16169464 537.68952942 21.41188049 C537.26441175 22.71470355 536.83925489 24.01751382 536.4140625 25.3203125 C535.9603094 26.71724397 535.50679948 28.11425446 535.05351257 29.51133728 C534.08576355 32.49249955 533.11646466 35.47315141 532.14590454 38.45339966 C530.59876049 43.20431718 529.05526518 47.95641507 527.51245117 52.70874023 C525.91535541 57.62788571 524.31815207 62.54699574 522.71983337 67.46574402 C517.78287175 82.65980972 512.86689431 97.86061211 507.95792007 113.06373978 C507.09230252 115.74441552 506.22645988 118.42501855 505.36062527 121.1056242 C495.89837436 150.4009389 486.44892937 179.7003865 477 209 C470.99137259 227.63178928 464.98189271 246.26330294 458.97013378 264.89408207 C457.61125085 269.1054097 456.25259632 273.31681095 454.89406681 277.5282526 C452.50066678 284.94777203 450.10662601 292.36708419 447.71153355 299.78605747 C446.5680948 303.32798774 445.4249217 306.87000312 444.28250122 310.41226196 C443.01481908 314.34286127 441.74573925 318.27300804 440.4765625 322.203125 C440.11172256 323.33503769 439.74688263 324.46695038 439.37098694 325.63316345 C436.30836329 335.11047821 433.15006164 344.54981509 430 354 C391.06 354 352.12 354 312 354 C309.75002267 347.250068 309.75002267 347.250068 309.0319519 343.70324707 C308.8672471 342.89915531 308.7025423 342.09506355 308.53284645 341.26660538 C308.27271295 339.96771189 308.27271295 339.96771189 308.00732422 338.64257812 C307.72311898 337.24692942 307.72311898 337.24692942 307.43317223 335.82308578 C306.80349329 332.72650968 306.17911793 329.62888837 305.5546875 326.53125 C305.10782853 324.3288483 304.66061625 322.12651827 304.21307373 319.92425537 C303.25918411 315.22698681 302.30754945 310.52926941 301.35772705 305.83117676 C299.874137 298.49315368 298.38565114 291.1561299 296.89599609 283.81933594 C296.39565775 281.35491997 295.89532206 278.89050347 295.39498901 276.42608643 C295.14696407 275.2044706 294.89893913 273.98285477 294.64339828 272.72422028 C293.8886176 269.00573538 293.13432684 265.2871514 292.38015747 261.56854248 C287.99826829 239.96616241 283.58034296 218.37127489 279.14469147 196.77987671 C278.62396544 194.24496373 278.10342384 191.71001294 277.58294678 189.17504883 C275.7230245 180.11648117 273.86195401 171.05815031 272 162 C267.23752505 183.45982511 262.70081765 204.95712194 258.33116436 226.50007224 C257.52040295 230.49407564 256.70662054 234.48746351 255.89312744 238.48091125 C254.01617241 247.69723336 252.14261483 256.9142443 250.26950073 266.13134766 C247.8712958 277.93147953 245.47153444 289.73129395 243.06856179 301.53045589 C242.10855937 306.24487646 241.1502608 310.95963894 240.19338179 315.67469442 C239.5977509 318.60800416 239.00070639 321.54102495 238.40331268 324.47397614 C238.00083375 326.45214776 237.60004887 328.43066384 237.19934082 330.40919495 C236.95290833 331.61770111 236.70647583 332.82620728 236.45257568 334.07133484 C236.24320248 335.10181788 236.03382927 336.13230093 235.81811142 337.19401073 C234.61083275 342.81047022 233.29176138 348.40236734 232 354 C192.73 354 153.46 354 113 354 C102.95215962 322.8658467 92.90701615 291.73102542 82.90246582 260.58294678 C78.60739262 247.21145217 74.30640203 233.84189336 69.9921875 220.4765625 C69.78179148 219.82474943 69.57139545 219.17293636 69.35462379 218.50137138 C68.28866247 215.19908243 67.22261296 211.89682194 66.15652466 208.59457397 C65.94507435 207.93959805 65.73362404 207.28462212 65.51576614 206.60979843 C65.08850966 205.28635459 64.66125084 203.96291149 64.23398972 202.63946915 C58.16333955 183.83493192 52.11990151 165.02191015 46.10784912 146.19854736 C40.72643451 129.35352544 35.29925864 112.52351669 29.85754395 95.69790649 C26.32443483 84.77329689 22.79522545 73.84742602 19.26654053 62.92138672 C18.43019914 60.33180174 17.59364021 57.74228719 16.75689697 55.15283203 C14.45266187 48.02085703 12.15243315 40.88761717 9.85888672 33.75219727 C9.16973461 31.6102945 8.47917755 29.46884319 7.78710938 27.32788086 C6.83992442 24.39688522 5.89783484 21.46429912 4.95703125 18.53125 C4.54763054 17.27018433 4.54763054 17.27018433 4.12995911 15.98364258 C3.87671371 15.19046631 3.62346832 14.39729004 3.36254883 13.58007812 C3.03786369 12.57176941 3.03786369 12.57176941 2.70661926 11.54309082 C1.64859051 7.73529312 0.85732136 3.85794612 0 0 Z " fill="#2E2D7E" transform="translate(305,13)"/>
<path d="M0 0 C37.62 0 75.24 0 114 0 C115.93005268 5.14680714 117.68832913 10.07087373 119.22290039 15.31445312 C119.42595228 16.00514232 119.62900417 16.69583151 119.83820915 17.40745068 C120.51082952 19.69790506 121.17921615 21.98957251 121.84765625 24.28125 C122.33260788 25.93537046 122.81785034 27.58940567 123.30335999 29.24336243 C124.3462566 32.79803838 125.38736749 36.35323045 126.42706299 39.90884399 C128.07906872 45.55819392 129.73507725 51.2063649 131.39208984 56.85424805 C131.6729884 57.8116838 131.95388695 58.76911955 132.24329758 59.7555685 C132.81794585 61.71417041 133.39261361 63.67276659 133.96730042 65.63135719 C134.84747969 68.63149628 135.72728917 71.63174363 136.60705566 74.63200378 C140.78598203 88.8804582 144.98271193 103.12359256 149.19140625 117.36328125 C149.48404673 118.35340588 149.7766872 119.3435305 150.07819557 120.36365891 C152.64618233 129.05135593 155.21571954 137.73859422 157.78543091 146.42578125 C159.35991215 151.74859326 160.93406034 157.07150363 162.5078125 162.39453125 C162.75284201 163.22327381 162.99787151 164.05201637 163.25032616 164.90587234 C167.19834945 178.26146321 171.11781533 191.62509943 175 205 C175.33 205 175.66 205 176 205 C179.88697035 185.3242957 183.77344865 165.64849427 187.65938473 145.97258568 C189.46484024 136.83096386 191.27044026 127.68937062 193.07641602 118.54785156 C194.65565219 110.55404466 196.23458113 102.56017712 197.81318194 94.56624472 C198.78304204 89.65499517 199.75313986 84.74379273 200.72367561 79.83267665 C205.84783725 53.89462281 210.92331857 27.94748288 216 2 C248.01 2 280.02 2 313 2 C319.14324156 32.54875998 325.21804432 63.10777925 331.1640625 93.6953125 C331.3920788 94.86825757 331.3920788 94.86825757 331.6247015 96.06489849 C333.48727807 105.64747206 335.34735472 115.23053013 337.20645022 124.81377959 C338.96833765 133.89564204 340.73220856 142.97711913 342.49609375 152.05859375 C343.11877752 155.26455431 343.74144994 158.47051707 344.36410522 161.67648315 C344.58995255 162.8393358 344.58995255 162.8393358 344.82036245 164.02568042 C345.84728432 169.313432 346.8736661 174.60128823 347.89981079 179.88919067 C348.30282577 181.96572518 348.7058508 184.04225774 349.10887909 186.11878967 C349.47964015 188.02931774 349.85025026 189.93987509 350.22085571 191.85043335 C350.44192993 192.98946106 350.66300415 194.12848877 350.89077759 195.30203247 C351.08205042 196.287894 351.27332325 197.27375553 351.47039223 198.28949165 C351.97287669 200.86118412 352.48392612 203.43100359 353 206 C358.52041861 187.19085172 363.92308218 168.3487794 369.30421066 149.49944687 C370.00931065 147.02989018 370.71471187 144.56041972 371.42019653 142.0909729 C377.06586481 122.32826667 382.69693485 102.56145344 388.30859375 82.7890625 C388.56688587 81.87904165 388.82517799 80.96902081 389.09129715 80.03142357 C391.60055939 71.19029941 394.10877743 62.34888085 396.61378384 53.50654984 C397.54282714 50.22767527 398.47255894 46.94899614 399.40239143 43.67034531 C399.825293 42.17848082 400.24787775 40.68652647 400.67007256 39.19446182 C404.37321561 26.10743875 408.19150242 13.057706 412 0 C448.96 0 485.92 0 524 0 C523.32364475 4.73448674 522.71369114 8.36944515 521.27612305 12.77758789 C520.91951096 13.88078873 520.56289886 14.98398956 520.19548035 16.12062073 C519.60951836 17.90362831 519.60951836 17.90362831 519.01171875 19.72265625 C518.59704333 20.99856584 518.18289794 22.2746478 517.76924133 23.55088806 C516.88111649 26.2873722 515.9894571 29.02266882 515.0949707 31.75708008 C513.66503273 36.12852285 512.2430079 40.50251443 510.82226562 44.87695312 C509.34649072 49.41957836 507.8701749 53.96202417 506.39108276 58.50357056 C503.21123686 68.26731543 500.04457661 78.0351936 496.89453125 87.80859375 C496.69116842 88.43954012 496.4878056 89.07048649 496.27828026 89.72055244 C495.25877716 92.88399511 494.2396249 96.04755066 493.22061157 99.21115112 C491.1591484 105.61005198 489.09519699 112.00814995 487.03125 118.40625 C486.72260482 119.36310605 486.72260482 119.36310605 486.40772438 120.33929253 C481.2237755 136.41033099 476.03110068 152.47854929 470.83856201 168.54681396 C463.81058346 190.29495358 456.78950472 212.04530733 449.77536011 233.7979126 C445.18289949 248.04025947 440.58714547 262.2815285 435.98262405 276.51998138 C435.25741571 278.76258499 434.53230268 281.00521938 433.80722046 283.24786377 C433.32916421 284.72644095 432.85110636 286.20501761 432.37304688 287.68359375 C432.13817881 288.41001446 431.90331074 289.13643517 431.66132545 289.88486862 C430.28930581 294.12809325 428.91656796 298.37108467 427.54327488 302.61389732 C426.89663775 304.61210302 426.25036142 306.61042499 425.60423279 308.60879517 C424.82267496 311.02596687 424.0405577 313.44295782 423.25770569 315.85971069 C420.44711444 324.55645321 417.72652209 333.2751293 415 342 C377.05 342 339.1 342 300 342 C297.09372169 327.82626965 294.18745783 313.65253666 291.28207207 299.47862339 C289.71711282 291.84401343 288.15203219 284.20942844 286.58642578 276.57495117 C286.03807146 273.90088187 285.48973284 271.22680936 284.94140625 268.55273438 C284.80537333 267.88933808 284.66934042 267.22594178 284.5291853 266.54244256 C283.01443611 259.15505241 281.50069793 251.76745694 279.98937988 244.37936401 C279.85288418 243.71211945 279.71638848 243.04487489 279.57575655 242.35741079 C279.02416479 239.66091402 278.47259217 236.96441335 277.92115498 234.26788497 C276.22154087 225.95717856 274.51704623 217.64749946 272.80578923 209.33918232 C271.66391371 203.79458332 270.52535111 198.24931072 269.38918757 192.70353848 C268.71871504 189.43170291 268.04598657 186.16037087 267.37006378 182.88965416 C266.62861404 179.30079409 265.89319102 175.71074895 265.15917969 172.12036133 C264.9387928 171.06114031 264.71840591 170.00191929 264.49134064 168.91060066 C264.19431873 167.44862157 264.19431873 167.44862157 263.89129639 165.95710754 C263.71808239 165.11519269 263.54486839 164.27327784 263.36640549 163.40585041 C262.98493412 160.90107613 262.93565863 158.52969448 263 156 C262.34 156 261.68 156 261 156 C260.95997455 156.55855525 260.91994909 157.1171105 260.87871075 157.69259167 C260.23634636 165.28279185 258.78029276 172.62713524 257.2277832 180.07739258 C256.94137338 181.47013061 256.65541106 182.86296073 256.36985779 184.25587463 C255.59721474 188.01838612 254.81835056 191.77958503 254.03832269 195.54057145 C253.21535125 199.51406277 252.39819008 203.48874888 251.58036804 207.46330261 C250.02623933 215.01182508 248.46693393 222.55926837 246.90575427 230.10633534 C245.15257662 238.58282386 243.40518943 247.0605024 241.65830481 255.53828967 C239.51701094 265.9295917 237.37448548 276.32063935 235.22810364 286.71089172 C235.07649782 287.44483392 234.92489201 288.17877612 234.76869208 288.93495899 C234.02907963 292.51478409 233.28878754 296.09446661 232.54721546 299.6738863 C231.25269918 305.92417232 229.96191096 312.17510013 228.69040972 318.43011528 C228.13356776 321.16830027 227.57407234 323.90593996 227.01435697 326.64353883 C226.62651459 328.54645403 226.24268398 330.45018548 225.85894489 332.35393238 C225.62831946 333.48077285 225.39769403 334.60761332 225.16007996 335.76860046 C224.85879574 337.2545649 224.85879574 337.2545649 224.55142498 338.77054882 C224 341 224 341 223 342 C221.51983606 342.09568576 220.03511727 342.12188268 218.55186462 342.12025452 C217.11098228 342.12231651 217.11098228 342.12231651 215.64099121 342.12442017 C214.57860229 342.12082489 213.51621338 342.11722961 212.42163086 342.11352539 C210.75355125 342.11374443 210.75355125 342.11374443 209.05177307 342.1139679 C205.35611049 342.11326821 201.66049759 342.1054732 197.96484375 342.09765625 C195.41036507 342.09579227 192.85588603 342.09436827 190.30140686 342.09336853 C184.2523829 342.08993344 178.20338045 342.08204264 172.15436512 342.07201904 C165.26934846 342.06085683 158.38433096 342.05534718 151.49930751 342.05032361 C137.3328617 342.03986 123.16643183 342.02226123 109 342 C103.07575549 324.31941194 97.17777878 306.63410836 91.53393555 288.86157227 C89.86392188 283.60392246 88.18565845 278.34890458 86.5078125 273.09375 C86.15048035 271.9742395 85.79314819 270.854729 85.42498779 269.70129395 C81.04393778 255.98815111 76.6094471 242.29228882 72.17792892 228.59539413 C65.77438434 208.80283289 59.38887419 189.0048999 53.0625 169.1875 C46.75889707 149.44186331 40.38740722 129.7186394 34 110 C27.32242894 89.3850895 20.66164602 68.76518962 14.0625 48.125 C13.58961548 46.64604248 13.58961548 46.64604248 13.10717773 45.13720703 C10.68786989 37.56845853 10.68786989 37.56845853 9.56338501 34.03302002 C8.06113041 29.31046366 6.54399945 24.59331653 5.00732422 19.88183594 C4.68130722 18.87547089 4.35529022 17.86910583 4.01939392 16.83224487 C3.39400409 14.90227359 2.76415655 12.97373923 2.12916565 11.04690552 C1.71029335 9.74920731 1.71029335 9.74920731 1.28295898 8.42529297 C1.03464828 7.66538055 0.78633759 6.90546814 0.53050232 6.12252808 C0 4 0 4 0 0 Z " fill="#981C1F" transform="translate(14,660)"/>
<path d="M0 0 C46.2 0 92.4 0 140 0 C147.33911065 22.01733195 154.64835227 44.03197627 161.75 66.125 C162.39814705 68.1382476 163.04659171 70.15139918 163.69506645 72.16454124 C169.42918029 89.96638004 175.13337666 107.77774233 180.82312012 125.59381104 C187.07028552 145.15155783 193.39109344 164.68519182 199.71822357 184.21717072 C206.15936395 204.10147093 212.57315748 223.99390525 218.92739868 243.90618896 C223.15702113 257.15738886 227.4159717 270.39886416 231.69921875 283.6328125 C231.94646824 284.39676079 232.19371773 285.16070908 232.44845963 285.94780731 C234.91353107 293.56353572 237.3804267 301.17867118 239.84971428 308.7930336 C242.21861981 316.09803038 244.58285095 323.4045054 246.93939209 330.71350098 C247.60042592 332.76184233 248.26296305 334.80969991 248.92779541 336.85681152 C249.67219269 339.15022291 250.40984016 341.44565269 251.14453125 343.7421875 C251.51553955 344.89315918 251.88654785 346.04413086 252.26879883 347.22998047 C253 350 253 350 253 354 C215.38 354 177.76 354 139 354 C124 301.5 124 301.5 124 297 C69.055 297.495 69.055 297.495 13 298 C8.10483868 316.05454517 8.10483868 316.05454517 3.21704102 334.11108398 C2.60459771 336.36449351 1.99190358 338.61783488 1.37890625 340.87109375 C1.06014526 342.05352661 0.74138428 343.23595947 0.41296387 344.45422363 C0.1085437 345.57075317 -0.19587646 346.68728271 -0.50952148 347.83764648 C-0.77377426 348.81249496 -1.03802704 349.78734344 -1.31028748 350.79173279 C-2 353 -2 353 -3 354 C-4.44213999 354.09558036 -5.88894079 354.12188394 -7.33424377 354.12025452 C-8.26958954 354.12162918 -9.2049353 354.12300385 -10.16862488 354.12442017 C-11.72012993 354.11902725 -11.72012993 354.11902725 -13.30297852 354.11352539 C-14.38577087 354.11367142 -15.46856323 354.11381744 -16.58416748 354.1139679 C-20.18243374 354.11326823 -23.78064897 354.10547333 -27.37890625 354.09765625 C-29.86612418 354.09579226 -32.35334248 354.09436827 -34.84056091 354.09336853 C-40.73021191 354.0899335 -46.6198439 354.08204277 -52.50948709 354.07201904 C-59.87025374 354.05976246 -67.23102264 354.05437791 -74.59179688 354.04882812 C-87.72787398 354.03808815 -100.86393583 354.02120089 -114 354 C-113.47827233 349.93824432 -112.8708952 346.11315459 -111.57983398 342.2253418 C-111.14587059 340.9034359 -111.14587059 340.9034359 -110.70314026 339.55482483 C-110.38731491 338.61247482 -110.07148956 337.67012482 -109.74609375 336.69921875 C-109.4141954 335.6924559 -109.08229706 334.68569305 -108.74034119 333.64842224 C-108.02174612 331.47029729 -107.300567 329.29302351 -106.5770874 327.11651611 C-104.61346661 321.20798525 -102.66925568 315.29306208 -100.72265625 309.37890625 C-100.32288574 308.16595886 -99.92311523 306.95301147 -99.51123047 305.70330811 C-96.04908344 295.18555995 -92.67150305 284.64211752 -89.31741333 274.08950806 C-82.26866814 251.91658114 -75.02794603 229.80952061 -67.74614716 207.71237946 C-61.41547729 188.50046015 -55.12824698 169.27770486 -49 150 C-42.38796486 129.20043652 -35.58674023 108.46566636 -28.75430679 87.73775101 C-21.28593477 65.08052342 -13.9074105 42.39864698 -6.6953125 19.65820312 C-6.23418816 18.20698814 -6.23418816 18.20698814 -5.76374817 16.72645569 C-5.20036763 14.95246912 -4.63861324 13.17796484 -4.0789032 11.40281677 C-3.83203262 10.62527542 -3.58516205 9.84773407 -3.33081055 9.04663086 C-3.1203862 8.38062363 -2.90996185 7.71461639 -2.69316101 7.02842712 C-1.88186769 4.65430431 -0.93178775 2.32946938 0 0 Z M67 96 C63.23093113 109.69836028 59.46683298 123.39807804 55.70842075 137.09936619 C53.9630681 143.46148115 52.21613524 149.82315334 50.46557617 156.18383789 C48.77603008 162.32305885 47.09065443 168.46341072 45.40815544 174.60456657 C44.76574822 176.94649897 44.12184326 179.28802105 43.47641182 181.62912178 C42.57217578 184.90995637 41.67329161 188.19221369 40.77563477 191.47485352 C40.50805862 192.44086487 40.24048248 193.40687622 39.96479797 194.40216064 C39.71941284 195.30368362 39.47402771 196.2052066 39.22120667 197.13404846 C39.00827249 197.90927636 38.79533831 198.68450426 38.57595158 199.48322392 C37.85865249 202.61765614 37.45473472 205.81685694 37 209 C57.46 209 77.92 209 99 209 C98.20997129 203.27831593 98.20997129 203.27831593 96.95756531 197.75975037 C96.75161743 196.99625778 96.54566956 196.2327652 96.33348083 195.44613647 C96.10959183 194.63303009 95.88570282 193.81992371 95.6550293 192.98217773 C95.41746918 192.10631516 95.17990906 191.23045258 94.93515015 190.32804871 C94.15220284 187.44545005 93.36328233 184.56452361 92.57421875 181.68359375 C92.02438236 179.66456758 91.47489356 177.64544673 90.92573547 175.62623596 C89.4794135 170.31234962 88.02790115 164.99989399 86.57543945 159.68768311 C85.39955508 155.3835163 84.22742447 151.07833174 83.05549908 146.77308559 C81.64642184 141.59705363 80.23551638 136.42152068 78.82421875 131.24609375 C78.55957006 130.27529814 78.29492138 129.30450253 78.02225304 128.30428886 C75.07983342 117.51703189 72.10888077 106.74062568 69 96 C68.34 96 67.68 96 67 96 Z " fill="#2E2D7E" transform="translate(128,13)"/>
<path d="M0 0 C-1.26422092 4.13489783 -2.80477561 7.6993981 -4.984375 11.4296875 C-5.58290283 12.46037354 -6.18143066 13.49105957 -6.7980957 14.55297852 C-7.44222412 15.64924561 -8.08635254 16.7455127 -8.75 17.875 C-9.42391386 19.03088154 -10.09732738 20.18705492 -10.77026367 21.34350586 C-12.15738277 23.72513293 -13.54772388 26.10483182 -14.94091797 28.48291016 C-16.88486158 31.80136856 -18.8203689 35.12468427 -20.75390625 38.44921875 C-27.46734766 49.98686447 -34.21966535 61.5015523 -41 73 C-44.83892502 72.35103887 -47.50986447 70.53865388 -50.75 68.4375 C-74.66161514 53.45166838 -102.21502433 43.78599129 -130.5625 43.5625 C-132.18647705 43.54703125 -132.18647705 43.54703125 -133.84326172 43.53125 C-143.03956823 43.63354168 -151.74566536 45.01517392 -159 51 C-161.58090855 55.22735021 -161.63866838 59.17637299 -161 64 C-158.27653383 70.43728368 -153.13638739 72.43921276 -147 75 C-142.31512833 76.5489193 -137.58984363 77.89485996 -132.83035278 79.19345093 C-130.5123147 79.82619893 -128.19810067 80.47151068 -125.88452148 81.12036133 C-122.7455184 82.00046418 -119.60558502 82.8770979 -116.46484375 83.75097656 C-105.93390522 86.68883318 -95.44623602 89.77382823 -85 93 C-84.11393066 93.27344238 -83.22786133 93.54688477 -82.31494141 93.82861328 C-71.83508958 97.12354464 -61.8734049 101.25160944 -51.9375 105.9375 C-50.91446777 106.41541992 -49.89143555 106.89333984 -48.83740234 107.38574219 C-27.16088088 117.9009207 -9.62430256 135.38016971 -1.1875 158.125 C7.02993211 182.66952674 5.8691736 210.46873743 -5.26953125 233.94921875 C-9.6406055 242.71444939 -14.39422059 250.71670475 -21 258 C-21.68449219 258.81339844 -22.36898438 259.62679688 -23.07421875 260.46484375 C-48.93210908 290.59369622 -88.58669958 302.93593245 -127 306 C-130.29057391 306.15391567 -133.57725258 306.20881164 -136.87109375 306.23828125 C-137.7829393 306.2480751 -138.69478485 306.25786896 -139.63426208 306.26795959 C-159.74214931 306.43945885 -179.26656107 306.33970523 -199 302 C-200.47702393 301.67854004 -200.47702393 301.67854004 -201.98388672 301.35058594 C-233.10077776 294.3473741 -261.35540658 281.37039343 -288 264 C-284.85752078 257.30549539 -281.03179239 251.27469736 -276.9375 245.125 C-272.2563195 238.0262287 -267.64477622 230.90490882 -263.25 223.625 C-255.52837986 210.84990371 -247.32884805 198.38588005 -239 186 C-235.16107498 186.64896113 -232.49013553 188.46134612 -229.25 190.5625 C-221.77463491 195.28863841 -213.98840986 199.22082083 -206 203 C-204.90429688 203.52464844 -203.80859375 204.04929687 -202.6796875 204.58984375 C-187.65643129 211.41366013 -171.24087936 216.15272101 -155 219 C-153.94619141 219.19529297 -153.94619141 219.19529297 -152.87109375 219.39453125 C-140.8256096 221.28056739 -127.98008694 220.70879347 -116.9375 215.1875 C-112.95382806 212.22093579 -111.49090212 209.74504448 -110.6171875 204.859375 C-110.2824532 200.58059738 -110.72941692 197.69000746 -113.375 194.25 C-120.23582413 187.53933731 -129.60535364 184.96011957 -138.625 182.4375 C-141.0106144 181.74677631 -143.39601741 181.05532226 -145.78125 180.36328125 C-147.09624843 179.98482122 -148.4113564 179.60674164 -149.7265625 179.22900391 C-244.16766327 152.08437221 -244.16766327 152.08437221 -265.05419922 115.72412109 C-271.25311007 104.42398985 -274.36961352 91.83696101 -275 79 C-275.05285156 77.989375 -275.10570312 76.97875 -275.16015625 75.9375 C-275.94753258 46.35953684 -264.88404126 21.68551934 -244.75390625 0.42138672 C-187.6106138 -58.33601821 -59.70030344 -49.65726174 0 0 Z " fill="#981C1F" transform="translate(983,698)"/>
<path d="M0 0 C0 63.36 0 126.72 0 192 C-41.25 192 -82.5 192 -125 192 C-125 132.6 -125 73.2 -125 12 C-118.73 8.7 -112.46 5.4 -106 2 C-80.48419837 -12.58045807 -19.7725874 -0.61789336 0 0 Z " fill="#2E2D7E" transform="translate(987,175)"/>
<path d="M0 0 C4.36665412 0.20632737 8.73523003 0.35560369 13.10394287 0.51086426 C27.75356467 1.05084556 42.3686785 1.83453914 57.00238037 2.74914551 C57.00238037 63.79914551 57.00238037 124.84914551 57.00238037 187.74914551 C17.07238037 187.74914551 -22.85761963 187.74914551 -63.99761963 187.74914551 C-64.40064997 144.60698643 -64.40064997 144.60698643 -64.48590088 126.54602051 C-64.54526836 114.06871505 -64.61510594 101.59208421 -64.75201416 89.11535645 C-64.85167176 80.02902513 -64.91619779 70.94324036 -64.93850458 61.85637772 C-64.95154524 57.04437042 -64.98219604 52.23392667 -65.0549202 47.4224205 C-65.12282904 42.89277895 -65.14373174 38.36534357 -65.12869644 33.83524132 C-65.13144648 32.17348038 -65.15132784 30.51164534 -65.18967438 28.85032463 C-65.29576489 24.01676114 -65.28890022 19.44974497 -63.99761963 14.74914551 C-61.01904725 11.65770879 -57.94167617 10.29999257 -53.99761963 8.74914551 C-52.78560378 7.93133409 -51.59308526 7.08214842 -50.44146729 6.18127441 C-35.55163063 -3.83410293 -17.03880518 -0.84684096 0 0 Z " fill="#981C1F" transform="translate(618.9976196289063,814.2508544921875)"/>
<path d="M0 0 C3.62119605 0.13370961 7.24369306 0.20943459 10.86639023 0.29022217 C19.51494461 0.4892781 28.16144332 0.74033007 36.80828476 1.00250244 C40.9126102 1.12606685 45.01706932 1.24502501 49.12151718 1.36444092 C57.09495855 1.59706665 65.06822834 1.83497689 73.04143906 2.07537842 C73.04143906 9.00537842 73.04143906 15.93537842 73.04143906 23.07537842 C54.6501739 23.16759089 36.27438773 23.19620962 17.88961411 22.64300537 C15.54053137 22.57535228 13.19140515 22.51823841 10.84197617 22.46405029 C4.46933329 22.31061105 -1.86703512 22.13194911 -8.21637344 21.51678467 C-24.04291933 20.24137512 -35.48131051 26.91689323 -48.71564102 34.79022217 C-50.95856094 36.07537842 -50.95856094 36.07537842 -51.95856094 36.07537842 C-51.95856094 28.81537842 -51.95856094 21.55537842 -51.95856094 14.07537842 C-48.63094393 12.01954568 -45.30662653 10.0210552 -41.90607071 8.09393311 C-40.22326719 7.1200593 -38.57503526 6.08716797 -36.92926407 5.05194092 C-25.05198393 -1.58038645 -13.27074473 -0.53972167 0 0 Z " fill="#2E2D7E" transform="translate(913.9585609436035,12.92462158203125)"/>
<path d="M0 0 C1.46510686 0.01778493 2.93023205 0.03411274 4.39537048 0.04907227 C9.01571116 0.10479763 13.63452471 0.20478526 18.25390625 0.3125 C19.36894405 0.33727417 19.36894405 0.33727417 20.50650787 0.36254883 C30.71151791 0.59013418 40.91314792 0.89867646 51.1149292 1.23962402 C54.87792675 1.36419135 58.64112026 1.48255052 62.40429688 1.6015625 C69.68769753 1.83275368 76.97084143 2.0709198 84.25390625 2.3125 C84.25390625 9.2425 84.25390625 16.1725 84.25390625 23.3125 C67.73406054 23.4106377 51.23732176 23.38074676 34.72381592 22.88067627 C32.37150504 22.81228482 30.01913245 22.75310763 27.66650391 22.69677734 C20.68296782 22.52541232 13.72901684 22.3002323 6.7578125 21.82421875 C-9.5138052 20.92614337 -20.58052527 24.54194152 -34.51733398 32.98388672 C-36.5394301 34.1893032 -38.64050089 35.25970357 -40.74609375 36.3125 C-40.74609375 29.0525 -40.74609375 21.7925 -40.74609375 14.3125 C-31.68359375 9.5625 -31.68359375 9.5625 -28.87084961 8.09082031 C-27.73981812 7.49672363 -27.73981812 7.49672363 -26.5859375 6.890625 C-25.82659912 6.49262695 -25.06726074 6.09462891 -24.28491211 5.68457031 C-21.60576226 4.31500016 -21.60576226 4.31500016 -18.86523438 2.17089844 C-13.14866117 -1.07958097 -6.36376199 -0.13997369 0 0 Z " fill="#2E2D7E" transform="translate(902.74609375,132.6875)"/>
<path d="M0 0 C1.95572433 0.02429077 1.95572433 0.02429077 3.95095825 0.04907227 C8.21554962 0.10580778 12.47855372 0.20761984 16.7421875 0.3125 C18.20519526 0.34591992 19.668208 0.37912234 21.13122559 0.41210938 C30.8639393 0.63648076 40.59408818 0.92777375 50.32434082 1.23962402 C54.22784073 1.3636931 58.13150551 1.48235101 62.03515625 1.6015625 C69.60433245 1.83346257 77.1732944 2.07150552 84.7421875 2.3125 C84.7421875 9.2425 84.7421875 16.1725 84.7421875 23.3125 C67.68654126 23.41077197 50.65119794 23.37991662 33.60137939 22.88095093 C31.17626559 22.81240328 28.75107946 22.75221985 26.32568359 22.69458008 C19.39131399 22.52582604 12.48124906 22.32003228 5.55859375 21.859375 C-9.2213906 21.05483286 -19.30041387 24.25854656 -31.95385742 31.9621582 C-34.64977209 33.54222645 -37.46287829 34.9150329 -40.2578125 36.3125 C-40.2578125 29.0525 -40.2578125 21.7925 -40.2578125 14.3125 C-37.2878125 12.745 -34.3178125 11.1775 -31.2578125 9.5625 C-30.33871094 9.0768457 -29.41960938 8.59119141 -28.47265625 8.09082031 C-27.72113281 7.69475586 -26.96960938 7.29869141 -26.1953125 6.890625 C-25.06416016 6.29362793 -25.06416016 6.29362793 -23.91015625 5.68457031 C-23.03488281 5.23178711 -22.15960937 4.77900391 -21.2578125 4.3125 C-20.45429855 3.79749939 -20.45429855 3.79749939 -19.634552 3.27209473 C-13.28574551 -0.49329923 -7.2183738 -0.1751419 0 0 Z " fill="#2E2D7E" transform="translate(902.2578125,92.6875)"/>
<path d="M0 0 C1.66196159 0.00181274 1.66196159 0.00181274 3.35749817 0.00366211 C5.17177559 0.0231189 5.17177559 0.0231189 7.02270508 0.04296875 C8.2968779 0.05013916 9.57105072 0.05730957 10.88383484 0.06469727 C26.433731 0.1750902 41.97763808 0.66878417 57.51928711 1.15759277 C61.48972927 1.2814875 65.46032526 1.4002494 69.4309082 1.51953125 C77.13483878 1.75168114 84.83857006 1.98967915 92.54223633 2.23046875 C92.54223633 9.16046875 92.54223633 16.09046875 92.54223633 23.23046875 C74.89933528 23.32481581 57.27411378 23.3304641 39.63751221 22.79919434 C37.29190507 22.73045904 34.94621459 22.66926939 32.6003418 22.61035156 C25.91897286 22.43892322 19.25673682 22.23222241 12.58520508 21.8125 C-1.06163043 21.11168212 -10.43153727 23.6420972 -22.09448242 30.85839844 C-25.45944654 32.8120243 -28.97757546 34.49037464 -32.45776367 36.23046875 C-32.45776367 28.97046875 -32.45776367 21.71046875 -32.45776367 14.23046875 C-28.70798176 12.27171686 -24.95794784 10.31345021 -21.20776367 8.35546875 C-20.14428711 7.79988281 -19.08081055 7.24429688 -17.98510742 6.671875 C-16.96030273 6.13691406 -15.93549805 5.60195313 -14.87963867 5.05078125 C-13.46569824 4.31239014 -13.46569824 4.31239014 -12.02319336 3.55908203 C-11.17660156 3.12063965 -10.33000977 2.68219727 -9.45776367 2.23046875 C-8.85741806 1.87781952 -8.25707245 1.52517029 -7.63853455 1.16183472 C-4.94926475 0.01329849 -2.92242273 -0.01247089 0 0 Z " fill="#2E2D7E" transform="translate(894.457763671875,52.76953125)"/>
<path d="M0 0 C5.79957976 0.36428586 11.59149051 0.55990291 17.40087891 0.67529297 C18.26152954 0.6925795 19.12218018 0.70986603 20.00891113 0.72767639 C21.67147238 0.75979433 23.33404963 0.7910967 24.99664307 0.82150269 C28.72307041 0.89212846 32.44866413 0.98210168 36.17431641 1.08544922 C37.36951904 1.11574219 38.56472168 1.14603516 39.79614258 1.17724609 C43.27923821 1.37146052 46.74040287 1.87334996 50.19384766 2.36669922 C50.19384766 8.96669922 50.19384766 15.56669922 50.19384766 22.36669922 C38.37671838 22.45233059 26.58987093 22.35578273 14.77905273 22.00561523 C11.52386971 21.90939417 8.26873506 21.82574618 5.01293945 21.75317383 C3.35579077 21.71564906 1.69864558 21.6779697 0.04150391 21.64013672 C-0.78088272 21.62151077 -1.60326935 21.60288483 -2.45057678 21.58369446 C-7.20931289 21.46526404 -11.95299789 21.26010981 -16.70443726 20.97344971 C-36.42253445 19.82262264 -49.99829713 22.00484717 -66.82373047 33.17333984 C-68.80615234 34.36669922 -68.80615234 34.36669922 -70.80615234 34.36669922 C-70.80615234 27.43669922 -70.80615234 20.50669922 -70.80615234 13.36669922 C-48.3005658 -3.43831973 -27.02504118 -1.74278812 0 0 Z " fill="#981C1F" transform="translate(625.80615234375,660.63330078125)"/>
<path d="M0 0 C1.53207092 0.02429077 1.53207092 0.02429077 3.09509277 0.04907227 C6.65803346 0.11357997 10.21914836 0.21201758 13.78125 0.3125 C15.16257979 0.34643829 16.54392841 0.37961704 17.92529297 0.41210938 C27.91099515 0.64754503 37.8947401 0.93488073 47.87854004 1.23962402 C51.94238696 1.36288352 56.00635479 1.48202193 60.0703125 1.6015625 C67.9740794 1.83463047 75.87769187 2.07245655 83.78125 2.3125 C83.78125 9.2425 83.78125 16.1725 83.78125 23.3125 C74.86328125 23.12890625 74.86328125 23.12890625 71.7736969 23.06326294 C66.53539307 22.95215465 61.29717483 22.85223831 56.05834961 22.76904297 C45.16821705 22.58461415 34.32268703 22.27319496 23.453125 21.56640625 C1.889087 20.27243284 -14.18322895 19.71056179 -32.29736328 33.10327148 C-34.21875 34.3125 -34.21875 34.3125 -37.21875 34.3125 C-37.21875 27.7125 -37.21875 21.1125 -37.21875 14.3125 C-34.21930183 12.72811407 -31.21921119 11.14496546 -28.21875 9.5625 C-27.37957031 9.1190625 -26.54039062 8.675625 -25.67578125 8.21875 C-24.84433594 7.78046875 -24.01289062 7.3421875 -23.15625 6.890625 C-22.02509766 6.29362793 -22.02509766 6.29362793 -20.87109375 5.68457031 C-19.99582031 5.23178711 -19.12054687 4.77900391 -18.21875 4.3125 C-17.64781616 3.96916626 -17.07688232 3.62583252 -16.48864746 3.27209473 C-10.90208792 0.10071762 -6.34141965 -0.20114186 0 0 Z " fill="#981C1F" transform="translate(592.21875,775.6875)"/>
<path d="M0 0 C1.43275256 0.02977877 2.86539059 0.06536636 4.29789734 0.10525513 C5.07856064 0.12300995 5.85922394 0.14076477 6.6635437 0.15905762 C9.26275774 0.21954518 11.8617181 0.28749598 14.46073914 0.35574341 C16.26901421 0.39996284 18.07729788 0.4438321 19.8855896 0.48736572 C23.68978084 0.58007122 27.49386083 0.67633046 31.29789734 0.775177 C36.14489124 0.9009471 40.99203119 1.01917546 45.83927631 1.13480949 C49.5825689 1.22477566 53.32576655 1.31828732 57.06894493 1.41287613 C58.85367175 1.45766584 60.63842241 1.50151641 62.42319679 1.54436874 C71.93597391 1.77522345 81.36981443 2.13568101 90.84745789 3.05105591 C90.84745789 9.65105591 90.84745789 16.25105591 90.84745789 23.05105591 C76.51606292 23.16045587 62.2173898 23.05318971 47.89332581 22.61895752 C45.52017391 22.55063025 43.14698105 22.49244825 40.77348328 22.43753052 C39.19266615 22.4001286 37.61185552 22.36245081 36.03105164 22.32449341 C35.25461807 22.30586746 34.47818451 22.28724152 33.67822266 22.26805115 C28.67165774 22.1350526 23.69216662 21.86259578 18.69511414 21.52761841 C0.62799174 20.55787856 -10.93483254 24.08994003 -26.10664368 33.85769653 C-28.15254211 35.05105591 -28.15254211 35.05105591 -30.15254211 35.05105591 C-30.15254211 28.12105591 -30.15254211 21.19105591 -30.15254211 14.05105591 C-28.28726868 13.12421997 -26.42199524 12.19738403 -24.50019836 11.24246216 C-22.69975229 10.34571488 -20.8993131 9.44895369 -19.09907532 8.55178833 C-17.84520198 7.92737013 -16.59097103 7.30366954 -15.33638 6.68069458 C-13.53588596 5.78649426 -11.73677036 4.8895201 -9.93769836 3.99246216 C-8.85367737 3.45307007 -7.76965637 2.91367798 -6.65278625 2.35794067 C-2.21021264 0.03579474 -2.21021264 0.03579474 0 0 Z " fill="#981C1F" transform="translate(585.1525421142578,736.9489440917969)"/>
<path d="M0 0 C1.96666122 0.02429077 1.96666122 0.02429077 3.97305298 0.04907227 C8.21988404 0.10544356 12.46509824 0.20656299 16.7109375 0.3125 C18.13439683 0.34581369 19.55785875 0.37901716 20.98132324 0.41210938 C30.2901754 0.63429587 39.59623282 0.92630263 48.90240479 1.23962402 C52.62492485 1.36386411 56.34762643 1.48241973 60.0703125 1.6015625 C67.28403686 1.83321846 74.49752465 2.07130451 81.7109375 2.3125 C81.7109375 9.2425 81.7109375 16.1725 81.7109375 23.3125 C79.32004883 23.25191406 76.92916016 23.19132813 74.46582031 23.12890625 C66.52705397 22.92795673 58.58824634 22.72867661 50.64941788 22.53019714 C45.84063968 22.40992192 41.03187654 22.28910112 36.22314453 22.16699219 C31.57419781 22.04896148 26.92521589 21.93241784 22.27620697 21.81686401 C20.51098068 21.77273474 18.74576723 21.72808815 16.98056793 21.68289185 C12.23533941 21.56157064 7.49017141 21.45205849 2.74430656 21.35887146 C0.86304091 21.31596875 -1.01770616 21.25175429 -2.89830017 21.18566895 C-8.64033773 21.04362007 -12.69361416 21.2619091 -17.82421875 24.15625 C-18.89994141 24.74277344 -19.97566406 25.32929687 -21.08398438 25.93359375 C-22.16228516 26.55363281 -23.24058594 27.17367187 -24.3515625 27.8125 C-26.5481114 29.03605532 -28.7472116 30.25504527 -30.94921875 31.46875 C-31.90449463 32.01337891 -32.85977051 32.55800781 -33.84399414 33.11914062 C-36.2890625 34.3125 -36.2890625 34.3125 -39.2890625 34.3125 C-39.2890625 27.7125 -39.2890625 21.1125 -39.2890625 14.3125 C-37.99871094 13.63703125 -36.70835937 12.9615625 -35.37890625 12.265625 C-33.66142321 11.36465029 -31.94397726 10.46360487 -30.2265625 9.5625 C-29.37900391 9.1190625 -28.53144531 8.675625 -27.65820312 8.21875 C-26.40620117 7.56132813 -26.40620117 7.56132813 -25.12890625 6.890625 C-24.36956787 6.49262695 -23.61022949 6.09462891 -22.82788086 5.68457031 C-20.14216958 4.30342065 -20.14216958 4.30342065 -17.31713867 2.17089844 C-11.96381706 -0.87359453 -5.97340638 -0.14329069 0 0 Z " fill="#981C1F" transform="translate(594.2890625,698.6875)"/>
<path d="M0 0 C3.3 0 6.6 0 10 0 C10.32798584 0.99443115 10.65597168 1.9888623 10.99389648 3.01342773 C12.20783378 6.69135211 13.42569899 10.3679656 14.64477539 14.04418945 C15.1725472 15.63758243 15.69924306 17.2313322 16.22485352 18.82543945 C16.97912709 21.11243105 17.73721989 23.39812517 18.49609375 25.68359375 C18.73154404 26.40026718 18.96699432 27.11694061 19.20957947 27.85533142 C20.13258873 31.19092096 20.13258873 31.19092096 22 34 C25.96 22.78 29.92 11.56 34 0 C35.98 0 37.96 0 40 0 C43.96 11.22 47.92 22.44 52 34 C55.24799446 25.92918128 55.24799446 25.92918128 58.140625 17.7734375 C58.66269531 16.19755859 58.66269531 16.19755859 59.1953125 14.58984375 C59.71738281 12.99849609 59.71738281 12.99849609 60.25 11.375 C60.61351562 10.27542969 60.97703125 9.17585938 61.3515625 8.04296875 C62.23715622 5.36288248 63.11991207 2.68189823 64 0 C67.3 0 70.6 0 74 0 C72.12851223 7.20233374 69.98343415 14.22692363 67.4609375 21.2265625 C67.13461334 22.14086029 66.80828918 23.05515808 66.47207642 23.99716187 C65.79000885 25.90523103 65.10594057 27.81258613 64.41992188 29.71923828 C63.36573015 32.65077798 62.31916166 35.58496172 61.2734375 38.51953125 C60.60721515 40.38036747 59.94056438 42.24105037 59.2734375 44.1015625 C58.95990326 44.98059235 58.64636902 45.85962219 58.32333374 46.76528931 C58.03278107 47.57058075 57.74222839 48.37587219 57.44287109 49.20556641 C57.18766693 49.91629303 56.93246277 50.62701965 56.66952515 51.35928345 C56 53 56 53 55 54 C53.33382885 54.04063832 51.66611905 54.042721 50 54 C46.9592066 46.85343487 44.03685715 39.66226633 41.1875 32.4375 C40.87353271 31.65197754 40.55956543 30.86645508 40.23608398 30.05712891 C39.80017944 28.944104 39.80017944 28.944104 39.35546875 27.80859375 C39.09403076 27.14657959 38.83259277 26.48456543 38.56323242 25.80249023 C38 24 38 24 38 21 C37.34 21 36.68 21 36 21 C35.88140625 21.69383789 35.7628125 22.38767578 35.640625 23.10253906 C34.92945017 26.31908741 33.89528849 29.27053919 32.75 32.359375 C32.3065625 33.55691406 31.863125 34.75445312 31.40625 35.98828125 C31.17550781 36.60525879 30.94476563 37.22223633 30.70703125 37.85791016 C29.99763405 39.75633153 29.2952986 41.65725988 28.59375 43.55859375 C25.13145439 52.86854561 25.13145439 52.86854561 24 54 C22.33382885 54.04063832 20.66611905 54.042721 19 54 C14.6928546 44.21937395 11.15081573 34.20227998 7.64135742 24.11474609 C6.67678623 21.34422703 5.70495429 18.57632695 4.73242188 15.80859375 C4.11675916 14.04702465 3.50150917 12.28531123 2.88671875 10.5234375 C2.59617111 9.69645355 2.30562347 8.8694696 2.00627136 8.01742554 C0 2.23033524 0 2.23033524 0 0 Z " fill="#929497" transform="translate(459,427)"/>
<path d="M0 0 C2.97 0 5.94 0 9 0 C12.09447656 7.43632288 14.73987212 14.97375834 17.25 22.625 C17.61351562 23.72457031 17.97703125 24.82414062 18.3515625 25.95703125 C19.23715622 28.63711752 20.11991207 31.31810177 21 34 C25.83671142 22.85066415 29.90399232 11.43767781 34 0 C35.65 0 37.3 0 39 0 C42.26798607 7.40944306 45.11789155 14.92880689 47.8125 22.5625 C48.12646729 23.44325195 48.44043457 24.32400391 48.76391602 25.23144531 C49.19982056 26.48006348 49.19982056 26.48006348 49.64453125 27.75390625 C49.90596924 28.49970947 50.16740723 29.2455127 50.43676758 30.01391602 C51 32 51 32 51 35 C51.66 35 52.32 35 53 35 C53.23460937 33.79472656 53.46921875 32.58945312 53.7109375 31.34765625 C55.15066105 24.86890028 57.41223704 18.68509791 59.625 12.4375 C60.04523437 11.23802734 60.46546875 10.03855469 60.8984375 8.80273438 C61.92774866 5.86685823 62.96169884 2.93270619 64 0 C67.3 0 70.6 0 74 0 C68.08284593 18.17349771 61.75960099 36.12271827 55 54 C53.02 54 51.04 54 49 54 C45.04 43.44 41.08 32.88 37 22 C33.6964781 29.41558817 33.6964781 29.41558817 30.640625 36.91015625 C30.24746094 37.91884766 29.85429688 38.92753906 29.44921875 39.96679688 C29.05347656 40.98837891 28.65773438 42.00996094 28.25 43.0625 C27.83878906 44.11888672 27.42757812 45.17527344 27.00390625 46.26367188 C26.00068773 48.84171017 24.999428 51.42049041 24 54 C22.02 54 20.04 54 18 54 C15.42993736 46.79408012 12.86719124 39.58558931 10.30957031 32.37524414 C9.43821699 29.92151708 8.56517629 27.46838856 7.69042969 25.01586914 C6.43503222 21.49520515 5.1856736 17.97244924 3.9375 14.44921875 C3.54377197 13.34913986 3.15004395 12.24906097 2.74438477 11.11564636 C2.38401123 10.09481461 2.0236377 9.07398285 1.65234375 8.0222168 C1.33257568 7.12286911 1.01280762 6.22352142 0.68334961 5.29692078 C0 3 0 3 0 0 Z " fill="#929497" transform="translate(716,427)"/>
<path d="M0 0 C2.97 0 5.94 0 9 0 C12.00441594 7.29268391 14.6877515 14.66675594 17.25 22.125 C18.4875 25.71375 19.725 29.3025 21 33 C24.96 22.11 28.92 11.22 33 0 C34.65 0 36.3 0 38 0 C42.61024816 10.45272854 46.30291157 21.19879669 50 32 C52.12445382 28.81331928 53.14928006 25.98480596 54.3828125 22.36328125 C54.60194305 21.72384079 54.82107361 21.08440033 55.04684448 20.42558289 C55.74363632 18.38925299 56.43438854 16.3509332 57.125 14.3125 C57.59725903 12.92890081 58.06991079 11.54543561 58.54296875 10.16210938 C59.69986846 6.77628063 60.85136158 3.38864156 62 0 C64.97 0 67.94 0 71 0 C70.39979592 5.95974453 68.71082473 11.15611064 66.65625 16.765625 C66.32709595 17.68083923 65.99794189 18.59605347 65.65881348 19.53900146 C64.61214413 22.44497588 63.55628354 25.34750817 62.5 28.25 C61.78974219 30.21592108 61.08010034 32.18206482 60.37109375 34.1484375 C58.81416111 38.46501803 57.25126431 42.77938769 55.6829834 47.09185791 C55.10013236 48.72024682 54.5469338 50.35919861 54 52 C52.02 52 50.04 52 48 52 C39.27448586 30.39260417 39.27448586 30.39260417 36 21 C31.58864422 31.18474308 27.78562263 41.570446 24 52 C22.02 52 20.04 52 18 52 C13.1408434 39.26793337 8.40885293 26.49896192 3.9375 13.625 C3.54377197 12.49658691 3.15004395 11.36817383 2.74438477 10.20556641 C2.38401123 9.16062012 2.0236377 8.11567383 1.65234375 7.0390625 C1.33257568 6.11303223 1.01280762 5.18700195 0.68334961 4.23291016 C0 2 0 2 0 0 Z " fill="#929497" transform="translate(135,1059)"/>
<path d="M0 0 C2.97 0 5.94 0 9 0 C12.00441594 7.29268391 14.6877515 14.66675594 17.25 22.125 C18.4875 25.71375 19.725 29.3025 21 33 C24.96 22.11 28.92 11.22 33 0 C34.65 0 36.3 0 38 0 C41.67280592 8.32728347 44.74395321 16.79576226 47.67602539 25.40722656 C47.96340576 26.24608398 48.25078613 27.08494141 48.546875 27.94921875 C48.80307617 28.70549561 49.05927734 29.46177246 49.32324219 30.2409668 C49.86251738 31.99786571 49.86251738 31.99786571 51 33 C54.63 22.11 58.26 11.22 62 0 C65.3 0 68.6 0 72 0 C66.26494668 17.43527013 60.41521349 34.80026306 54 52 C52.02 52 50.04 52 48 52 C42.06 36.655 42.06 36.655 36 21 C32.04 31.23 28.08 41.46 24 52 C22.02 52 20.04 52 18 52 C15.43207781 44.91745683 12.86908681 37.83314375 10.30957031 30.74755859 C9.43766817 28.33568613 8.56462411 25.92422616 7.69042969 23.51318359 C6.4364696 20.05413044 5.18657954 16.59363054 3.9375 13.1328125 C3.54377197 12.04944611 3.15004395 10.96607971 2.74438477 9.84988403 C2.38401123 8.8489975 2.0236377 7.84811096 1.65234375 6.81689453 C1.33257568 5.93309113 1.01280762 5.04928772 0.68334961 4.13870239 C0 2 0 2 0 0 Z " fill="#929497" transform="translate(376,1059)"/>
<path d="M0 0 C11 0 11 0 13.77416992 2.28808594 C14.41974854 3.34286133 15.06532715 4.39763672 15.73046875 5.484375 C16.09545975 6.05520813 16.46045074 6.62604126 16.83650208 7.21417236 C17.99167761 9.03867662 19.08926923 10.89078471 20.1875 12.75 C20.93320203 13.95148989 21.6825302 15.15073714 22.43554688 16.34765625 C23.85205527 18.60595021 25.2402658 20.87390848 26.61401367 23.15917969 C29.94583212 28.52254485 33.49761839 33.74642759 37 39 C37.33 26.13 37.66 13.26 38 0 C40.97 0 43.94 0 47 0 C47 17.82 47 35.64 47 54 C36 54 36 54 33.50976562 52.0925293 C32.98060547 51.19961182 32.45144531 50.30669434 31.90625 49.38671875 C31.27460937 48.3817334 30.64296875 47.37674805 29.9921875 46.34130859 C29.33476563 45.23867676 28.67734375 44.13604492 28 43 C26.84364671 41.24697894 25.66229387 39.51263088 24.47888184 37.77778625 C22.45660698 34.80886478 20.48296781 31.80777657 18.5 28.8125 C15.695 24.584375 12.89 20.35625 10 16 C9.67 28.54 9.34 41.08 9 54 C6.03 54 3.06 54 0 54 C0 36.18 0 18.36 0 0 Z " fill="#929497" transform="translate(855,427)"/>
<path d="M0 0 C11 0 11 0 13.98950195 2.61108398 C14.77864044 3.79737832 15.5268955 5.01160433 16.23828125 6.24609375 C16.8594709 7.21289818 16.8594709 7.21289818 17.49320984 8.19923401 C18.80417002 10.2575288 20.0580044 12.34441844 21.3125 14.4375 C22.17151582 15.80891122 23.03412021 17.17808154 23.90039062 18.54492188 C25.5088653 21.09157634 27.093637 23.65009691 28.6574707 26.22436523 C31.33888469 30.54620654 34.17874588 34.76811881 37 39 C37.33 26.13 37.66 13.26 38 0 C40.97 0 43.94 0 47 0 C47 17.82 47 35.64 47 54 C36 54 36 54 33.50976562 52.0925293 C32.98060547 51.19961182 32.45144531 50.30669434 31.90625 49.38671875 C31.27460937 48.3817334 30.64296875 47.37674805 29.9921875 46.34130859 C29.33476563 45.23867676 28.67734375 44.13604492 28 43 C26.84364671 41.24697894 25.66229387 39.51263088 24.47888184 37.77778625 C22.45660698 34.80886478 20.48296781 31.80777657 18.5 28.8125 C15.695 24.584375 12.89 20.35625 10 16 C9.67 28.54 9.34 41.08 9 54 C6.03 54 3.06 54 0 54 C0 36.18 0 18.36 0 0 Z " fill="#929497" transform="translate(556,427)"/>
<path d="M0 0 C11 0 11 0 14.3125 3.05761719 C15.24742545 4.44514867 16.14176597 5.86064258 17 7.296875 C17.48782959 8.04205383 17.97565918 8.78723267 18.47827148 9.55499268 C20.02276782 11.93167119 21.51115502 14.3381579 23 16.75 C24.02897765 18.3564618 25.06149862 19.96065985 26.09765625 21.5625 C28.37868956 25.09738236 30.62425582 28.6521131 32.84008789 32.22821045 C34.13904442 34.2123932 35.57706749 36.10275665 37 38 C37.33 25.46 37.66 12.92 38 0 C40.97 0 43.94 0 47 0 C47 17.82 47 35.64 47 54 C36 54 36 54 32.47216797 50.61938477 C31.43976553 49.08565028 30.44804623 47.52397706 29.4921875 45.94140625 C28.95522247 45.12252426 28.41825745 44.30364227 27.86502075 43.45994568 C26.1645863 40.84931122 24.52001 38.20832869 22.875 35.5625 C21.7327272 33.78611687 20.58692781 32.01199618 19.4375 30.24023438 C16.92344524 26.35552212 14.44473511 22.45069377 11.99533081 18.5249176 C11.08577648 17.01722926 11.08577648 17.01722926 10 16 C9.67 28.54 9.34 41.08 9 54 C6.03 54 3.06 54 0 54 C0 36.18 0 18.36 0 0 Z " fill="#929497" transform="translate(233,427)"/>
<path d="M0 0 C3.63 0 7.26 0 11 0 C13.70976026 2.73261366 15.08766448 4.54735626 16.875 7.8125 C17.86482692 9.45324932 18.85710585 11.09252137 19.8515625 12.73046875 C20.35719727 13.58946777 20.86283203 14.4484668 21.38378906 15.33349609 C24.14789097 19.89384671 27.21059289 24.24562683 30.25 28.625 C32.1475 31.38875 34.045 34.1525 36 37 C36.33 24.79 36.66 12.58 37 0 C39.97 0 42.94 0 46 0 C46 17.16 46 34.32 46 52 C35 52 35 52 32.4921875 50.07495117 C31.95851563 49.17752197 31.42484375 48.28009277 30.875 47.35546875 C30.24335937 46.3504834 29.61171875 45.34549805 28.9609375 44.31005859 C28.31382812 43.21773926 27.66671875 42.12541992 27 41 C25.89298089 39.30017514 24.76349928 37.61668501 23.63330078 35.9322052 C21.72450541 33.07916367 19.86669655 30.19321595 18 27.3125 C15.36 23.249375 12.72 19.18625 10 15 C9.67 27.21 9.34 39.42 9 52 C6.03 52 3.06 52 0 52 C0 34.84 0 17.68 0 0 Z " fill="#929497" transform="translate(894,1059)"/>
<path d="M0 0 C10 0 10 0 12.39257812 1.9074707 C12.93333984 2.80038818 13.47410156 3.69330566 14.03125 4.61328125 C14.67191406 5.6182666 15.31257813 6.62325195 15.97265625 7.65869141 C16.64167969 8.76132324 17.31070312 9.86395508 18 11 C19.1596269 12.75114933 20.3408989 14.4863898 21.52331543 16.22221375 C23.54281467 19.19250985 25.51726418 22.19257386 27.5 25.1875 C30.305 29.415625 33.11 33.64375 36 38 C36.33 25.46 36.66 12.92 37 0 C39.64 0 42.28 0 45 0 C45 17.16 45 34.32 45 52 C34 52 34 52 31.40942383 49.98730469 C30.5667395 48.59366699 30.5667395 48.59366699 29.70703125 47.171875 C29.05669922 46.14320312 28.40636719 45.11453125 27.73632812 44.0546875 C27.10146484 42.96414063 26.46660156 41.87359375 25.8125 40.75 C25.16603516 39.70585938 24.51957031 38.66171875 23.85351562 37.5859375 C22.61801503 35.59041311 21.39861922 33.58474173 20.20239258 31.56542969 C16.94216923 26.28748913 13.44118552 21.16177828 10 16 C9.67 27.88 9.34 39.76 9 52 C6.03 52 3.06 52 0 52 C0 34.84 0 17.68 0 0 Z " fill="#929497" transform="translate(487,1059)"/>
<path d="M0 0 C10 0 10 0 12.39257812 1.9074707 C12.93333984 2.80038818 13.47410156 3.69330566 14.03125 4.61328125 C14.67191406 5.6182666 15.31257812 6.62325195 15.97265625 7.65869141 C16.64167969 8.76132324 17.31070313 9.86395508 18 11 C19.1596269 12.75114933 20.3408989 14.4863898 21.52331543 16.22221375 C23.54281467 19.19250985 25.51726418 22.19257386 27.5 25.1875 C30.305 29.415625 33.11 33.64375 36 38 C36.33 25.46 36.66 12.92 37 0 C39.64 0 42.28 0 45 0 C45 17.16 45 34.32 45 52 C34 52 34 52 31.40942383 49.98730469 C30.5667395 48.59366699 30.5667395 48.59366699 29.70703125 47.171875 C29.05669922 46.14320312 28.40636719 45.11453125 27.73632812 44.0546875 C27.10146484 42.96414063 26.46660156 41.87359375 25.8125 40.75 C25.16603516 39.70585938 24.51957031 38.66171875 23.85351562 37.5859375 C22.61801503 35.59041311 21.39861922 33.58474173 20.20239258 31.56542969 C16.94216923 26.28748913 13.44118552 21.16177828 10 16 C9.67 27.88 9.34 39.76 9 52 C6.03 52 3.06 52 0 52 C0 34.84 0 17.68 0 0 Z " fill="#929497" transform="translate(226,1059)"/>
<path d="M0 0 C31.85868227 0 31.85868227 0 39.4296875 7.1484375 C45.69658328 14.53776238 47.5505568 22.9115812 46.8125 32.4140625 C45.40109412 40.97071064 39.84285682 47.04984825 33 52 C29.01723976 53.96589628 25.80529253 54.23566477 21.38671875 54.1953125 C20.26225342 54.19031738 19.13778809 54.18532227 17.97924805 54.18017578 C16.56297119 54.16196777 15.14669434 54.14375977 13.6875 54.125 C9.170625 54.08375 4.65375 54.0425 0 54 C0 36.18 0 18.36 0 0 Z M9 8 C9 20.87 9 33.74 9 47 C21.4756948 47.66098341 21.4756948 47.66098341 31.74609375 42.48828125 C35.89307065 38.06285027 37.90066274 33.78723285 38.0625 27.6171875 C37.75878413 21.40999438 36.23385632 16.62844746 32 12 C25.28957388 6.1345905 17.897858 8 9 8 Z " fill="#929497" transform="translate(386,427)"/>
<path d="M0 0 C29.41176471 0 29.41176471 0 37.25 5.125 C44.41707 12.61784591 46.39126717 20.18892297 46.265625 30.35546875 C45.69992296 38.11723346 43.28985277 43.16949773 37.625 48.5 C26.81923532 57.81663103 14.43022572 54 0 54 C0 36.18 0 18.36 0 0 Z M9 8 C9 20.87 9 33.74 9 47 C21.75415821 47.27957974 21.75415821 47.27957974 31.75 42.25 C36.3934753 37.6065247 37.19360075 33.30224742 37.375 26.9375 C37.19819647 21.25857062 36.48390802 17.48390802 32.34765625 13.34765625 C24.51443905 6.30935327 21.59209617 8 9 8 Z " fill="#929497" transform="translate(611,427)"/>
<path d="M0 0 C30.04 0 30.04 0 38.875 7.125 C44.87835412 13.80958579 46.67480158 21.27085825 46.3125 30.11328125 C45.51160532 37.51154583 43.08309025 42.50588545 38.3046875 48.17578125 C26.28464754 57.68994847 16.0893084 54 0 54 C0 36.18 0 18.36 0 0 Z M9 8 C9 20.87 9 33.74 9 47 C21.64560653 47.31073763 21.64560653 47.31073763 32 42 C36.73123017 36.96677641 37.35622097 31.48991943 37.27734375 24.85546875 C36.71423106 19.05778738 34.28844591 14.87093395 29.9375 11.0625 C22.75268764 6.01784451 19.8136786 8 9 8 Z " fill="#929497" transform="translate(89,427)"/>
<path d="M0 0 C5.88055954 3.49934705 10.04055967 8.2911292 12.55859375 14.66796875 C14.54788772 22.66045755 14.32363174 31.1027134 10.40234375 38.4296875 C6.18860136 45.16054993 1.6576302 48.6786647 -5.78125 51.3203125 C-14.26390237 53.13465759 -21.38761541 52.43932721 -28.90625 48.1328125 C-36.46560521 43.0239359 -40.03831407 37.2673836 -41.78125 28.3203125 C-42.59709631 20.70574695 -40.44362076 13.31977501 -36.15625 7.0078125 C-27.46466223 -3.75320093 -12.16604944 -5.64852296 0 0 Z M-25.76171875 9.09765625 C-29.89154108 13.53402209 -32.74222809 17.4116177 -32.8046875 23.66796875 C-32.3956495 30.80460541 -30.6312879 35.61643039 -25.34375 40.6328125 C-20.28524957 43.9640201 -15.85825634 45.0859196 -9.78125 44.3203125 C-4.02114001 42.17438917 -0.42982623 38.70790566 3.03125 33.6953125 C5.2146391 27.48989085 5.33723422 21.00623161 2.59375 14.9453125 C-0.05866069 10.45094994 -3.10597523 7.2988526 -8.109375 5.46875 C-15.09628864 3.68987321 -20.3051476 4.20073342 -25.76171875 9.09765625 Z " fill="#929497" transform="translate(704.78125,429.6796875)"/>
<path d="M0 0 C6.72268187 3.88349099 11.7420169 9.16599798 14.08984375 16.70703125 C15.69465153 24.94504451 14.67627765 32.5288729 10.5 39.8125 C5.96246259 46.24889818 0.03856853 49.00794181 -7.5 50.8125 C-15.29647 52.08566093 -23.16448409 49.83373752 -29.61328125 45.33984375 C-35.15787225 40.31765533 -37.94508248 34.19463217 -38.87890625 26.8203125 C-39.2046732 18.56054414 -37.05894015 12.98262468 -32.8125 6.0625 C-24.11649986 -2.39847311 -11.13122116 -5.33963842 0 0 Z M-24.25 10.125 C-28.91826966 15.70098876 -30.01984851 20.03077798 -29.77734375 27.19921875 C-29.22031053 32.44788392 -27.03276271 35.52060605 -23.3125 39.0625 C-19.62594866 41.99164666 -16.25246689 43.66260772 -11.5 43.8125 C-4.76869893 42.98707275 -1.01708415 39.88893618 3.1875 34.75 C6.43597828 29.9546273 6.03228624 24.37108919 5.5 18.8125 C4.00854432 13.46661971 1.17780978 9.68499226 -3.51171875 6.72265625 C-11.19525442 3.20543854 -17.84432199 4.73840713 -24.25 10.125 Z " fill="#929497" transform="translate(875.5,1061.1875)"/>
<path d="M0 0 C6.72268187 3.88349099 11.7420169 9.16599798 14.08984375 16.70703125 C15.69465153 24.94504451 14.67627765 32.5288729 10.5 39.8125 C5.96246259 46.24889818 0.03856853 49.00794181 -7.5 50.8125 C-15.29647 52.08566093 -23.16448409 49.83373752 -29.61328125 45.33984375 C-35.15787225 40.31765533 -37.94508248 34.19463217 -38.87890625 26.8203125 C-39.2046732 18.56054414 -37.05894015 12.98262468 -32.8125 6.0625 C-24.11649986 -2.39847311 -11.13122116 -5.33963842 0 0 Z M-24.25 10.125 C-28.91826966 15.70098876 -30.01984851 20.03077798 -29.77734375 27.19921875 C-29.22031053 32.44788392 -27.03276271 35.52060605 -23.3125 39.0625 C-19.62594866 41.99164666 -16.25246689 43.66260772 -11.5 43.8125 C-4.76869893 42.98707275 -1.01708415 39.88893618 3.1875 34.75 C6.43597828 29.9546273 6.03228624 24.37108919 5.5 18.8125 C4.00854432 13.46661971 1.17780978 9.68499226 -3.51171875 6.72265625 C-11.19525442 3.20543854 -17.84432199 4.73840713 -24.25 10.125 Z " fill="#929497" transform="translate(365.5,1061.1875)"/>
<path d="M0 0 C29.13416816 0 29.13416816 0 36.65625 6.18359375 C37.56890625 7.29927734 37.56890625 7.29927734 38.5 8.4375 C39.1290625 9.17871094 39.758125 9.91992188 40.40625 10.68359375 C45.16818342 17.60473718 44.99637338 25.9003828 44 34 C42.03107629 40.88244313 38.0757479 46.18978522 32 50 C28.0625764 51.88388906 24.95342939 52.2365254 20.60546875 52.1953125 C19.52160889 52.19031738 18.43774902 52.18532227 17.32104492 52.18017578 C15.9569751 52.16196777 14.59290527 52.14375977 13.1875 52.125 C8.835625 52.08375 4.48375 52.0425 0 52 C0 34.84 0 17.68 0 0 Z M8 8 C8 20.21 8 32.42 8 45 C20.74409688 45.98621358 20.74409688 45.98621358 30 41 C34.37126866 36.51058894 35.77736162 32.30059659 36.375 26.125 C36.21160206 20.78392989 34.18928598 16.25630494 30.46875 12.421875 C22.6208352 5.72806532 21.30157921 8 8 8 Z " fill="#929497" transform="translate(278,1059)"/>
<path d="M0 0 C11.88 0 23.76 0 36 0 C36 2.64 36 5.28 36 8 C27.09 8 18.18 8 9 8 C9 12.62 9 17.24 9 22 C16.26 22 23.52 22 31 22 C31 24.64 31 27.28 31 30 C23.74 30 16.48 30 9 30 C9 35.61 9 41.22 9 47 C18.57 47 28.14 47 38 47 C38 49.31 38 51.62 38 54 C25.46 54 12.92 54 0 54 C0 36.18 0 18.36 0 0 Z " fill="#929497" transform="translate(341,427)"/>
<path d="M0 0 C1.98 0 3.96 0 6 0 C9.0942046 6.00059045 11.77948836 12.08611578 14.328125 18.3359375 C14.72199402 19.29650055 15.11586304 20.2570636 15.52166748 21.24673462 C16.3467171 23.26135204 17.17020137 25.27661117 17.9921875 27.29248047 C19.25548316 30.38843757 20.52587442 33.48141803 21.796875 36.57421875 C22.59938444 38.53628411 23.4014826 40.49851774 24.203125 42.4609375 C24.58430481 43.38796478 24.96548462 44.31499207 25.35821533 45.27011108 C25.7056781 46.12505157 26.05314087 46.97999207 26.41113281 47.86083984 C26.71883606 48.61392426 27.02653931 49.36700867 27.34356689 50.14291382 C28 52 28 52 28 54 C24.7 54 21.4 54 18 54 C17.3291288 52.3767313 16.66342971 50.75132422 16 49.125 C15.62875 48.22007812 15.2575 47.31515625 14.875 46.3828125 C14 44 14 44 14 42 C6.74 42 -0.52 42 -8 42 C-8.33 43.98 -8.66 45.96 -9 48 C-9.93942486 50.02915769 -10.92598385 52.03875312 -12 54 C-14.97 54 -17.94 54 -21 54 C-20.38169646 50.4300661 -19.42633413 47.2829642 -18.05053711 43.93432617 C-17.45002785 42.46336739 -17.45002785 42.46336739 -16.83738708 40.96269226 C-16.40507278 39.9166835 -15.97275848 38.87067474 -15.52734375 37.79296875 C-15.0848378 36.71243729 -14.64233185 35.63190582 -14.18641663 34.51863098 C-12.77429425 31.07318693 -11.35598322 27.63032951 -9.9375 24.1875 C-8.97810648 21.84977725 -8.01911726 19.51188852 -7.06054688 17.17382812 C-4.71171657 11.44728574 -2.35780218 5.72285378 0 0 Z M3 16 C2.20688633 17.72850345 1.4155741 19.45783354 0.625 21.1875 C0.18414062 22.15042969 -0.25671875 23.11335938 -0.7109375 24.10546875 C-3.19231861 29.3562193 -3.19231861 29.3562193 -4 35 C0.95 35 5.9 35 11 35 C8.91923185 28.54961873 6.57778144 22.26780359 4 16 C3.67 16 3.34 16 3 16 Z " fill="#929497" transform="translate(200,427)"/>
<path d="M0 0 C1.4540625 0.0309375 1.4540625 0.0309375 2.9375 0.0625 C3.39600342 1.18108398 3.85450684 2.29966797 4.3269043 3.45214844 C6.05051578 7.65688054 7.77458342 11.86142548 9.4987793 16.06591797 C10.24076307 17.87543834 10.98262799 19.68500746 11.72436523 21.49462891 C12.44496631 23.25264285 13.16575909 25.01057822 13.88674927 26.76843262 C14.59215887 28.48864733 15.29697752 30.20910451 16.00119019 31.92980957 C17.50372081 35.59608284 19.01268888 39.25817581 20.57275391 42.90039062 C21.25797119 44.50430664 21.25797119 44.50430664 21.95703125 46.140625 C22.54061401 47.48495605 22.54061401 47.48495605 23.13598633 48.85644531 C23.9375 51.0625 23.9375 51.0625 23.9375 54.0625 C20.9675 54.0625 17.9975 54.0625 14.9375 54.0625 C13.2875 50.4325 11.6375 46.8025 9.9375 43.0625 C3.0075 43.0625 -3.9225 43.0625 -11.0625 43.0625 C-12.3825 46.6925 -13.7025 50.3225 -15.0625 54.0625 C-18.3625 54.0625 -21.6625 54.0625 -25.0625 54.0625 C-22.93291318 47.44607956 -20.50841173 41.02141207 -17.8671875 34.59375 C-17.47427521 33.63223022 -17.08136292 32.67071045 -16.67654419 31.68005371 C-15.85267951 29.66600294 -15.02737288 27.65254146 -14.20068359 25.63964844 C-12.93043711 22.5452946 -11.66609974 19.44857195 -10.40234375 16.3515625 C-9.59930721 14.3904821 -8.795934 12.42953953 -7.9921875 10.46875 C-7.61303192 9.53969849 -7.23387634 8.61064697 -6.8432312 7.65344238 C-6.49261627 6.80165405 -6.14200134 5.94986572 -5.78076172 5.07226562 C-5.31801346 3.9438324 -5.31801346 3.9438324 -4.84591675 2.79260254 C-3.5265268 -0.12114663 -3.45117344 0.07043211 0 0 Z M-1.0625 15.0625 C-2.2346449 18.01869219 -3.39927476 20.97778789 -4.5625 23.9375 C-5.06330078 25.20013672 -5.06330078 25.20013672 -5.57421875 26.48828125 C-5.89003906 27.29394531 -6.20585938 28.09960938 -6.53125 28.9296875 C-6.82451172 29.67331543 -7.11777344 30.41694336 -7.41992188 31.18310547 C-8.17033991 33.04687213 -8.17033991 33.04687213 -8.0625 35.0625 C-3.1125 35.0625 1.8375 35.0625 6.9375 35.0625 C6.27283318 31.73916588 5.75909397 29.30682568 4.52734375 26.29296875 C4.25986328 25.63232422 3.99238281 24.97167969 3.71679688 24.29101562 C3.43900391 23.61748047 3.16121094 22.94394531 2.875 22.25 C2.59333984 21.55712891 2.31167969 20.86425781 2.02148438 20.15039062 C1.33075027 18.45282376 0.63466272 16.75743688 -0.0625 15.0625 C-0.3925 15.0625 -0.7225 15.0625 -1.0625 15.0625 Z " fill="#929497" transform="translate(59.0625,426.9375)"/>
<path d="M0 0 C1.4540625 0.0309375 1.4540625 0.0309375 2.9375 0.0625 C5.12650208 5.37787862 7.31350497 10.69407406 9.4987793 16.01098633 C10.24011249 17.81393822 10.98196083 19.61667839 11.72436523 21.41918945 C15.9132749 31.59064171 20.06242649 41.76634825 23.9375 52.0625 C20.6375 52.0625 17.3375 52.0625 13.9375 52.0625 C12.6175 48.7625 11.2975 45.4625 9.9375 42.0625 C3.0075 41.7325 -3.9225 41.4025 -11.0625 41.0625 C-12.0525 44.3625 -13.0425 47.6625 -14.0625 51.0625 C-15.0625 52.0625 -15.0625 52.0625 -17.12890625 52.16015625 C-20.59570312 52.11132812 -20.59570312 52.11132812 -24.0625 52.0625 C-21.99848342 45.60371245 -19.63844445 39.31154507 -17.0859375 33.03125 C-16.71522125 32.11412231 -16.344505 31.19699463 -15.96255493 30.2520752 C-15.18569658 28.33221682 -14.4074707 26.41291129 -13.62792969 24.49414062 C-12.4302234 21.54458009 -11.23828297 18.5927344 -10.046875 15.640625 C-9.28940343 13.77069519 -8.5316029 11.9008986 -7.7734375 10.03125 C-7.4161557 9.14594604 -7.0588739 8.26064209 -6.69076538 7.34851074 C-6.3601712 6.53676392 -6.02957703 5.72501709 -5.68896484 4.88867188 C-5.3982309 4.17191284 -5.10749695 3.45515381 -4.80795288 2.7166748 C-3.51847028 -0.14471279 -3.39610466 0.06930826 0 0 Z M-1.0625 15.0625 C-2.0688655 17.49754509 -3.06776413 19.93520864 -4.0625 22.375 C-4.34867188 23.06529297 -4.63484375 23.75558594 -4.9296875 24.46679688 C-6.15160744 27.47795674 -7.0625 29.78136984 -7.0625 33.0625 C-2.4425 33.0625 2.1775 33.0625 6.9375 33.0625 C5.98582179 30.43491047 5.02652879 27.81055507 4.0625 25.1875 C3.79308594 24.44113281 3.52367187 23.69476562 3.24609375 22.92578125 C1.70143439 18.62779918 1.70143439 18.62779918 -1.0625 15.0625 Z " fill="#929497" transform="translate(545.0625,1132.9375)"/>
<path d="M0 0 C11.55 0 23.1 0 35 0 C35 2.64 35 5.28 35 8 C26.09 8 17.18 8 8 8 C8 12.62 8 17.24 8 22 C15.26 22 22.52 22 30 22 C30 24.31 30 26.62 30 29 C22.74 29 15.48 29 8 29 C8 34.28 8 39.56 8 45 C17.24 45 26.48 45 36 45 C36 47.31 36 49.62 36 52 C24.12 52 12.24 52 0 52 C0 34.84 0 17.68 0 0 Z " fill="#929497" transform="translate(421,1133)"/>
<path d="M0 0 C27.40681818 0 27.40681818 0 33.05859375 4.71875 C33.74115234 5.60046875 33.74115234 5.60046875 34.4375 6.5 C34.91058594 7.0878125 35.38367188 7.675625 35.87109375 8.28125 C39.2534335 13.43083302 38.51139195 20.11188994 38 26 C36.44166556 30.92061037 33.26897245 34.18872546 29 37 C24.61538417 39.24831578 20.50562198 39.23694921 15.6875 39.125 C14.94693359 39.11597656 14.20636719 39.10695313 13.44335938 39.09765625 C11.62876533 39.07424213 9.81433929 39.03837615 8 39 C8 43.29 8 47.58 8 52 C5.36 52 2.72 52 0 52 C0 34.84 0 17.68 0 0 Z M8 8 C8 15.92 8 23.84 8 32 C11.0628125 32.0928125 11.0628125 32.0928125 14.1875 32.1875 C15.91033203 32.23970703 15.91033203 32.23970703 17.66796875 32.29296875 C22.64351897 31.85549364 25.07871134 30.01826642 28.375 26.375 C30.52112225 21.91766916 30.37769961 18.70497415 29 14 C27.17879704 11.18007283 25.99309044 9.49654522 23 8 C20.44612508 7.92826194 17.92723239 7.90712268 15.375 7.9375 C12.94125 7.958125 10.5075 7.97875 8 8 Z " fill="#929497" transform="translate(377,1133)"/>
<path d="M0 0 C1.4540625 0.0309375 1.4540625 0.0309375 2.9375 0.0625 C5.12650208 5.37787862 7.31350497 10.69407406 9.4987793 16.01098633 C10.24011249 17.81393822 10.98196083 19.61667839 11.72436523 21.41918945 C15.9132749 31.59064171 20.06242649 41.76634825 23.9375 52.0625 C20.6375 52.0625 17.3375 52.0625 13.9375 52.0625 C12.6175 48.7625 11.2975 45.4625 9.9375 42.0625 C3.0075 41.7325 -3.9225 41.4025 -11.0625 41.0625 C-12.0525 44.3625 -13.0425 47.6625 -14.0625 51.0625 C-15.0625 52.0625 -15.0625 52.0625 -17.12890625 52.16015625 C-20.59570312 52.11132812 -20.59570312 52.11132812 -24.0625 52.0625 C-21.99848342 45.60371245 -19.63844445 39.31154507 -17.0859375 33.03125 C-16.71522125 32.11412231 -16.344505 31.19699463 -15.96255493 30.2520752 C-15.18569658 28.33221682 -14.4074707 26.41291129 -13.62792969 24.49414062 C-12.4302234 21.54458009 -11.23828297 18.5927344 -10.046875 15.640625 C-9.28940343 13.77069519 -8.5316029 11.9008986 -7.7734375 10.03125 C-7.4161557 9.14594604 -7.0588739 8.26064209 -6.69076538 7.34851074 C-6.3601712 6.53676392 -6.02957703 5.72501709 -5.68896484 4.88867188 C-5.3982309 4.17191284 -5.10749695 3.45515381 -4.80795288 2.7166748 C-3.51847028 -0.14471279 -3.39610466 0.06930826 0 0 Z M-1.0625 15.0625 C-3.3725 21.3325 -5.6825 27.6025 -8.0625 34.0625 C-3.1125 34.0625 1.8375 34.0625 6.9375 34.0625 C5.07196958 27.439867 2.89344577 21.27448756 -0.0625 15.0625 C-0.3925 15.0625 -0.7225 15.0625 -1.0625 15.0625 Z " fill="#929497" transform="translate(762.0625,1058.9375)"/>
<path d="M0 0 C1.98 0 3.96 0 6 0 C6.64231567 1.58699707 6.64231567 1.58699707 7.29760742 3.20605469 C8.90913613 7.18726018 10.52147187 11.16813844 12.1340332 15.14892578 C12.82760769 16.86140378 13.52097256 18.57396669 14.21411133 20.28662109 C15.21899183 22.76943777 16.22468987 25.25192214 17.23046875 27.734375 C17.55610809 28.53959595 17.88174744 29.34481689 18.21725464 30.17443848 C19.65398682 33.71939374 21.10024045 37.25827803 22.60400391 40.77539062 C23.28922119 42.37930664 23.28922119 42.37930664 23.98828125 44.015625 C24.38184814 44.92086914 24.77541504 45.82611328 25.1809082 46.75878906 C26 49 26 49 26 52 C23.03 52 20.06 52 17 52 C15.68 48.7 14.36 45.4 13 42 C6.07 41.67 -0.86 41.34 -8 41 C-8.99 44.3 -9.98 47.6 -11 51 C-12 52 -12 52 -14.06640625 52.09765625 C-17.53320312 52.04882812 -17.53320312 52.04882812 -21 52 C-18.61317458 43.06748669 -15.11279514 34.6969163 -11.52978516 26.19433594 C-10.49739506 23.74381682 -9.47271784 21.29018161 -8.44921875 18.8359375 C-7.7895085 17.26022986 -7.12936724 15.68470259 -6.46875 14.109375 C-6.16553833 13.3842572 -5.86232666 12.6591394 -5.54992676 11.91204834 C-3.84032542 7.86167575 -2.01341504 3.91190914 0 0 Z M2 15 C0.83061634 17.97810741 -0.33504963 20.95765591 -1.5 23.9375 C-1.83386719 24.78763672 -2.16773438 25.63777344 -2.51171875 26.51367188 C-2.82753906 27.32255859 -3.14335938 28.13144531 -3.46875 28.96484375 C-3.76201172 29.7137085 -4.05527344 30.46257324 -4.35742188 31.23413086 C-5.05699195 32.84342811 -5.05699195 32.84342811 -5 34 C-0.05 34 4.9 34 10 34 C7.91923185 27.54961873 5.57778144 21.26780359 3 15 C2.67 15 2.34 15 2 15 Z " fill="#929497" transform="translate(632,1059)"/>
<path d="M0 0 C3.3 0 6.6 0 10 0 C11.77913844 3.82237976 13.55725083 7.64523472 15.33447266 11.46850586 C15.93739081 12.76518182 16.54057415 14.06173452 17.14404297 15.3581543 C20.48967199 22.54598581 23.8091712 29.7416543 27 37 C29.36080744 34.63919256 30.29117348 32.47207654 31.6796875 29.43359375 C32.19660156 28.30759766 32.71351563 27.18160156 33.24609375 26.02148438 C33.78363281 24.83876953 34.32117188 23.65605469 34.875 22.4375 C35.40480469 21.28185547 35.93460938 20.12621094 36.48046875 18.93554688 C39.36119231 12.64155905 42.20255588 6.33141338 45 0 C48.3 0 51.6 0 55 0 C53.63547228 4.34651601 51.96980976 8.39832204 50.0234375 12.515625 C49.59342438 13.42992783 49.59342438 13.42992783 49.15472412 14.36270142 C48.5448056 15.65909219 47.93348602 16.9548246 47.32086182 18.24993896 C45.73255777 21.6084687 44.15508599 24.97207007 42.578125 28.3359375 C42.11305038 29.32746323 42.11305038 29.32746323 41.63858032 30.33901978 C37.97159019 38.17250658 34.45880386 46.07267936 31 54 C28.69 54 26.38 54 24 54 C10.65151124 25.5035513 10.65151124 25.5035513 4.125 11.25 C3.70299316 10.33524902 3.28098633 9.42049805 2.84619141 8.47802734 C2.46640137 7.64480957 2.08661133 6.8115918 1.6953125 5.953125 C1.36547363 5.23286133 1.03563477 4.51259766 0.69580078 3.77050781 C0 2 0 2 0 0 Z " fill="#929497" transform="translate(134,427)"/>
<path d="M0 0 C2.63795993 1.54430571 5.14890352 3.22825294 7.5 5.1875 C6.93628586 8.45704202 6.00037734 10.01325883 3.5 12.1875 C1.46930738 11.17899872 -0.54867662 10.16116065 -2.54296875 9.08203125 C-8.23924309 6.20795476 -12.2812949 5.83496839 -18.5 7.1875 C-19.42729355 10.13797947 -19.69408036 11.69635787 -18.54296875 14.609375 C-15.66774465 18.23776488 -12.325572 19.47965758 -8.125 21.25 C3.78560743 26.38213033 3.78560743 26.38213033 6.875 31.4375 C8.12948311 36.9572257 7.35272674 40.77517134 4.5 45.5 C0.19192248 50.04328865 -5.8721067 51.29220851 -11.9375 51.625 C-19.30096337 51.35418961 -26.14661506 48.18399261 -31.5 43.1875 C-30.34826645 40.71949953 -29.45216435 39.13966435 -27.5 37.1875 C-24.50166354 37.409599 -22.91311605 38.57484341 -20.375 40.25 C-15.39008264 43.22157061 -9.73759459 42.91856975 -4.19921875 41.66796875 C-3.63847656 41.50941406 -3.07773437 41.35085938 -2.5 41.1875 C-2.08190799 38.35598027 -2.08190799 38.35598027 -2.5 35.1875 C-6.82989025 30.98323519 -12.18406276 28.79916559 -17.6171875 26.36328125 C-22.53941415 24.032189 -25.43733402 21.7374107 -28.5 17.1875 C-29.6956559 12.73163951 -28.87580212 9.01739635 -27 4.875 C-19.98331521 -2.66793615 -9.40849279 -4.54626797 0 0 Z " fill="#929497" transform="translate(736.5,1134.8125)"/>
<path d="M0 0 C2.63795993 1.54430571 5.14890352 3.22825294 7.5 5.1875 C6.93628586 8.45704202 6.00037734 10.01325883 3.5 12.1875 C1.28974503 11.12330316 -0.68535011 10.05510706 -2.6875 8.625 C-7.68839666 6.06898615 -13.11339226 5.57518204 -18.5 7.1875 C-19.42729355 10.13797947 -19.69408036 11.69635787 -18.54296875 14.609375 C-15.66774465 18.23776488 -12.325572 19.47965758 -8.125 21.25 C3.78560743 26.38213033 3.78560743 26.38213033 6.875 31.4375 C8.12948311 36.9572257 7.35272674 40.77517134 4.5 45.5 C0.19192248 50.04328865 -5.8721067 51.29220851 -11.9375 51.625 C-19.30096337 51.35418961 -26.14661506 48.18399261 -31.5 43.1875 C-30.34826645 40.71949953 -29.45216435 39.13966435 -27.5 37.1875 C-24.50166354 37.409599 -22.91311605 38.57484341 -20.375 40.25 C-15.39008264 43.22157061 -9.73759459 42.91856975 -4.19921875 41.66796875 C-3.63847656 41.50941406 -3.07773437 41.35085938 -2.5 41.1875 C-2.08190799 38.35598027 -2.08190799 38.35598027 -2.5 35.1875 C-6.82989025 30.98323519 -12.18406276 28.79916559 -17.6171875 26.36328125 C-22.53941415 24.032189 -25.43733402 21.7374107 -28.5 17.1875 C-29.6956559 12.73163951 -28.87580212 9.01739635 -27 4.875 C-19.98331521 -2.66793615 -9.40849279 -4.54626797 0 0 Z " fill="#929497" transform="translate(655.5,1134.8125)"/>
<path d="M0 0 C2.625 2.3125 2.625 2.3125 4 4 C2.84826645 6.46800047 1.95216435 8.04783565 0 10 C-2.86964432 9.8020935 -4.02119501 8.98122727 -6.1875 7.0625 C-9.95223493 4.30169439 -13.34535752 3.25643272 -18 3 C-22.5363045 3.70600804 -25.83176789 5.44024096 -28.875 8.875 C-33.07854805 15.05668831 -34.01236749 20.62417973 -33 28 C-30.92427818 33.16357245 -27.65396243 36.93818261 -23 40 C-18.66512523 41.44495826 -14.35011367 41.95710274 -10.0625 40.2109375 C-6.86391487 38.40483986 -3.86671048 36.29336838 -1 34 C0.65 35.98 2.3 37.96 4 40 C0.26978748 45.59531878 -4.13714064 48.15121027 -10.61328125 49.57421875 C-19.08549878 50.68866886 -26.20022567 49.15647282 -33.3125 44.375 C-38.29648633 40.34947258 -41.00113637 34.99659088 -43 29 C-43.70450128 20.76541941 -43.5349429 13.12460198 -39 6 C-28.44550802 -6.15114401 -13.74948868 -9.15767831 0 0 Z " fill="#929497" transform="translate(330,432)"/>
<path d="M0 0 C3.37026164 1.7930456 5.31413498 3.57512834 7.4375 6.75 C5.7875 8.4 4.1375 10.05 2.4375 11.75 C0.21917112 10.68191573 -1.78488907 9.59556315 -3.8125 8.1875 C-7.35393024 6.33629783 -10.55880606 5.58048876 -14.5625 5.75 C-17.50705734 7.02895058 -17.50705734 7.02895058 -19.5625 8.75 C-19.67518871 12.11389435 -19.67518871 12.11389435 -18.5625 15.75 C-16.25836299 17.7088572 -13.64868286 18.77545218 -10.875 19.9375 C-9.45268855 20.57294579 -8.03208354 21.21222598 -6.61328125 21.85546875 C-5.58412598 22.31880615 -5.58412598 22.31880615 -4.53417969 22.79150391 C0.38357392 25.18218007 4.32916782 27.59629911 6.4375 32.75 C6.96954782 37.53843042 6.93533872 39.73517492 4.8125 44.0625 C0.91105613 48.47729175 -3.82170694 50.37806646 -9.60546875 50.953125 C-18.08868894 51.13855058 -24.78510952 48.78959805 -31.5625 43.75 C-30.99878586 40.48045798 -30.06287734 38.92424117 -27.5625 36.75 C-24.88209121 37.74558041 -22.53881456 38.76518297 -20.125 40.3125 C-15.72133393 42.78284926 -12.66153576 43.00223771 -7.75 41.875 C-4.73859595 41.06991445 -4.73859595 41.06991445 -3.5625 39.75 C-3.52169217 37.75041636 -3.51995644 35.74954746 -3.5625 33.75 C-4.64789062 33.21890625 -5.73328125 32.6878125 -6.8515625 32.140625 C-8.29698239 31.4273009 -9.74228889 30.71374699 -11.1875 30 C-11.90035156 29.65195313 -12.61320313 29.30390625 -13.34765625 28.9453125 C-26.04147112 22.65663357 -26.04147112 22.65663357 -29.5625 15.75 C-30.02594169 11.97626049 -29.93539289 9.62008342 -28.4375 6.125 C-21.16538151 -3.08635008 -10.63926367 -5.10058817 0 0 Z " fill="#929497" transform="translate(568.5625,1061.25)"/>
<path d="M0 0 C2.54554008 1.68446944 4.21323131 3.6644259 5.84765625 6.22265625 C4.19765625 7.87265625 2.54765625 9.52265625 0.84765625 11.22265625 C-1.14893169 10.24644843 -3.10072151 9.25334762 -5.01171875 8.1171875 C-10.20423157 5.14543946 -13.32076497 4.81503379 -19.15234375 6.22265625 C-21.48386683 8.13991619 -21.48386683 8.13991619 -21.52734375 11.47265625 C-19.86071349 16.01801151 -18.80675327 16.32031332 -14.58984375 18.41015625 C-12.45450219 19.37131356 -10.30896255 20.31024061 -8.15234375 21.22265625 C-2.43192772 23.728832 1.5459239 25.75416204 4.84765625 31.22265625 C5.80175689 35.9256125 5.30000749 39.28315751 3.22265625 43.59765625 C-0.71732878 47.95237655 -5.38850183 49.76801396 -11.125 50.4609375 C-18.39662768 50.71918222 -26.01222974 49.11472764 -31.4765625 44.08203125 C-32.02957031 43.4684375 -32.58257812 42.85484375 -33.15234375 42.22265625 C-32.0006102 39.75465578 -31.1045081 38.1748206 -29.15234375 36.22265625 C-26.18816134 36.43438356 -24.92791786 37.40329172 -22.58984375 39.28515625 C-17.80968061 41.97943002 -13.53253828 42.09557393 -8.15234375 41.22265625 C-5.45132769 39.45142399 -5.45132769 39.45142399 -4.15234375 37.22265625 C-4.74464077 34.47134105 -5.4049706 32.7091953 -7.81445312 31.140625 C-9.98613679 30.09738557 -12.17585379 29.14318823 -14.40234375 28.22265625 C-26.81302998 22.98590014 -26.81302998 22.98590014 -30.58984375 16.91015625 C-31.56856801 12.23402925 -31.43111875 8.29459549 -28.91796875 4.22265625 C-21.6292872 -4.79426938 -10.00800112 -5.06757226 0 0 Z " fill="#929497" transform="translate(366.15234375,1135.77734375)"/>
<path d="M0 0 C1.96692952 1.3249715 3.54041531 2.56588095 5.05859375 4.38671875 C4.89253473 7.04366313 4.26945376 8.15055554 2.49609375 10.13671875 C2.02171875 10.54921875 1.54734375 10.96171875 1.05859375 11.38671875 C-1.45713335 10.22561394 -3.50355907 8.97447335 -5.75390625 7.32421875 C-9.86748044 4.82381091 -13.14094737 3.87012925 -17.953125 4.7578125 C-23.4872618 6.45494779 -26.86924287 9.53169334 -29.94140625 14.38671875 C-32.25904877 19.82814033 -32.430775 24.72127685 -30.94140625 30.38671875 C-28.788549 35.44280673 -25.90073231 39.33426819 -20.890625 41.7578125 C-16.26311422 43.25085706 -12.08630822 43.36693534 -7.625 41.328125 C-3.6171642 39.00643921 -3.6171642 39.00643921 -0.94140625 35.38671875 C1.52659422 36.5384523 3.1064294 37.4345544 5.05859375 39.38671875 C4.73967576 42.73875036 3.48894437 44.34254122 0.99609375 46.51171875 C-4.44512122 50.87131289 -9.44960469 51.6337084 -16.31640625 51.32421875 C-23.79388415 50.42194333 -30.25050619 47.62011685 -35.37890625 42.01171875 C-41.5053387 33.85471237 -41.88867277 26.48371868 -40.94140625 16.38671875 C-39.32409306 9.66716752 -35.46607036 4.47984801 -29.94140625 0.38671875 C-20.11298197 -5.37065977 -9.91552631 -5.42179025 0 0 Z " fill="#929497" transform="translate(949.94140625,430.61328125)"/>
<path d="M0 0 C2.4072772 1.48296401 4.23936265 2.79560704 5.8515625 5.140625 C5.8515625 7.203125 5.8515625 7.203125 4.8515625 9.140625 C3.54120419 10.17054678 2.20944775 11.17422683 0.8515625 12.140625 C0.37847656 11.71910156 -0.09460938 11.29757812 -0.58203125 10.86328125 C-4.85191209 7.3258556 -8.29295538 5.17209826 -13.91015625 4.91015625 C-17.88919918 5.31986573 -20.97754854 6.73017547 -24.1484375 9.140625 C-28.59910897 14.73249429 -29.56610039 19.29648186 -29.4921875 26.28125 C-28.78544088 32.16009692 -25.67837913 35.71742348 -21.4609375 39.640625 C-16.94366846 41.68618079 -13.03331582 41.85011484 -8.1484375 41.140625 C-5.2229731 39.7896962 -5.2229731 39.7896962 -3.1484375 38.140625 C-2.4884375 38.140625 -1.8284375 38.140625 -1.1484375 38.140625 C-0.8184375 37.150625 -0.4884375 36.160625 -0.1484375 35.140625 C2.31956297 36.29235855 3.89939815 37.18846065 5.8515625 39.140625 C5.75279444 42.10366677 4.89082506 43.10136244 2.7890625 45.203125 C-4.31249204 49.88712906 -11.05519723 51.29480532 -19.4375 49.70703125 C-26.22195166 47.83023277 -31.70092636 43.99580873 -35.5 38.01171875 C-39.2660617 30.65570614 -40.45905753 23.59627827 -38.5 15.44140625 C-35.73635324 7.72917833 -31.24125884 2.48836454 -23.9609375 -1.296875 C-15.95326467 -4.44810571 -7.60292357 -3.92587326 0 0 Z " fill="#929497" transform="translate(497.1484375,1135.859375)"/>
<path d="M0 0 C13.53 0 27.06 0 41 0 C41 2.64 41 5.28 41 8 C35.72 8 30.44 8 25 8 C25 22.52 25 37.04 25 52 C22.03 52 19.06 52 16 52 C16 37.48 16 22.96 16 8 C10.72 8 5.44 8 0 8 C0 5.36 0 2.72 0 0 Z " fill="#929497" transform="translate(778,1059)"/>
<path d="M0 0 C13.53 0 27.06 0 41 0 C41 2.64 41 5.28 41 8 C35.72 8 30.44 8 25 8 C25 22.52 25 37.04 25 52 C22.03 52 19.06 52 16 52 C16 37.48 16 22.96 16 8 C10.72 8 5.44 8 0 8 C0 5.36 0 2.72 0 0 Z " fill="#929497" transform="translate(578,1059)"/>
<path d="M0 0 C13.2 0 26.4 0 40 0 C40 2.64 40 5.28 40 8 C34.72 8 29.44 8 24 8 C24 22.52 24 37.04 24 52 C21.36 52 18.72 52 16 52 C16 37.48 16 22.96 16 8 C10.72 8 5.44 8 0 8 C0 5.36 0 2.72 0 0 Z " fill="#929497" transform="translate(666,1133)"/>
<path d="M0 0 C2.97 0 5.94 0 9 0 C9 14.85 9 29.7 9 45 C17.58 45 26.16 45 35 45 C35 47.31 35 49.62 35 52 C23.45 52 11.9 52 0 52 C0 34.84 0 17.68 0 0 Z " fill="#929497" transform="translate(572,1133)"/>
<path d="M0 0 C2.97 0 5.94 0 9 0 C9 14.85 9 29.7 9 45 C17.58 45 26.16 45 35 45 C35 47.31 35 49.62 35 52 C23.45 52 11.9 52 0 52 C0 34.84 0 17.68 0 0 Z " fill="#929497" transform="translate(662,1059)"/>
<path d="M0 0 C2.97 0 5.94 0 9 0 C9 14.85 9 29.7 9 45 C17.25 45 25.5 45 34 45 C34 47.31 34 49.62 34 52 C22.78 52 11.56 52 0 52 C0 34.84 0 17.68 0 0 Z " fill="#929497" transform="translate(701,1059)"/>
<path d="M0 0 C2.97 0 5.94 0 9 0 C9 17.82 9 35.64 9 54 C6.03 54 3.06 54 0 54 C0 36.18 0 18.36 0 0 Z " fill="#929497" transform="translate(838,427)"/>
<path d="M0 0 C2.97 0 5.94 0 9 0 C9 17.82 9 35.64 9 54 C6.03 54 3.06 54 0 54 C0 36.18 0 18.36 0 0 Z " fill="#929497" transform="translate(539,427)"/>
<path d="M0 0 C2.97 0 5.94 0 9 0 C9 17.16 9 34.32 9 52 C6.03 52 3.06 52 0 52 C0 34.84 0 17.68 0 0 Z " fill="#929497" transform="translate(611,1133)"/>
<path d="M0 0 C2.97 0 5.94 0 9 0 C9 17.16 9 34.32 9 52 C6.03 52 3.06 52 0 52 C0 34.84 0 17.68 0 0 Z " fill="#929497" transform="translate(509,1133)"/>
<path d="M0 0 C2.97 0 5.94 0 9 0 C9 17.16 9 34.32 9 52 C6.03 52 3.06 52 0 52 C0 34.84 0 17.68 0 0 Z " fill="#929497" transform="translate(823,1059)"/>
<path d="M0 0 C2.64 0 5.28 0 8 0 C8 17.16 8 34.32 8 52 C5.36 52 2.72 52 0 52 C0 34.84 0 17.68 0 0 Z " fill="#929497" transform="translate(472,1059)"/>
<path d="M0 0 C2.64 0 5.28 0 8 0 C8 17.16 8 34.32 8 52 C5.36 52 2.72 52 0 52 C0 34.84 0 17.68 0 0 Z " fill="#929497" transform="translate(211,1059)"/>
<path d="M0 0 C3.0625 0.375 3.0625 0.375 5.0625 2 C6.0625 4.375 6.0625 4.375 5.625 7.125 C3.64405092 11.24537408 1.30820013 15.12104109 -1.9375 18.375 C-2.9275 18.375 -3.9175 18.375 -4.9375 18.375 C-4.64453125 16.35677083 -4.3515625 14.33854167 -4.05859375 12.3203125 C-3.7690703 10.29359333 -3.7690703 10.29359333 -4.9375 8.375 C-5.125 5.375 -5.125 5.375 -4.9375 2.375 C-2.9375 0.375 -2.9375 0.375 0 0 Z " fill="#929497" transform="translate(800.9375,470.625)"/>
<path d="M0 0 C1.7325 0.1546875 1.7325 0.1546875 3.5 0.3125 C5.5 3.3125 5.5 3.3125 5.3125 6.375 C4.5 9.3125 4.5 9.3125 1.5 11.3125 C-1.82240324 10.9883631 -3.10776303 10.70473697 -5.5 8.3125 C-5.75 5.3125 -5.75 5.3125 -5.5 2.3125 C-3.5 0.3125 -3.5 0.3125 0 0 Z " fill="#929497" transform="translate(968.5,470.6875)"/>
</svg>
