<?xml version="1.0" standalone="no"?>
<!DOCTYPE svg PUBLIC "-//W3C//DTD SVG 20010904//EN"
 "http://www.w3.org/TR/2001/REC-SVG-20010904/DTD/svg10.dtd">
<svg version="1.0" xmlns="http://www.w3.org/2000/svg"
 width="1000.000000pt" height="1193.000000pt" viewBox="0 0 1000.000000 1193.000000"
 preserveAspectRatio="xMidYMid meet">

<g transform="translate(0.000000,1193.000000) scale(0.100000,-0.100000)"
fill="#000000" stroke="none">
<path d="M1285 11788 c-3 -7 -261 -800 -573 -1763 l-568 -1750 549 -3 c303 -1
552 0 554 2 2 2 35 120 74 262 38 143 72 267 75 277 5 16 41 17 564 17 l559 0
19 -62 c10 -35 45 -161 78 -280 l59 -218 566 0 567 0 -39 123 c-22 67 -277
860 -568 1762 l-528 1640 -692 3 c-548 2 -693 0 -696 -10z m834 -1485 c84
-307 154 -566 157 -575 5 -17 -15 -18 -316 -18 -253 0 -321 3 -318 13 3 6 74
265 158 575 85 309 157 562 160 562 4 0 75 -251 159 -557z"/>
<path d="M3060 11788 c0 -7 254 -800 564 -1763 l564 -1750 588 0 589 0 200
977 c120 588 203 971 207 960 4 -9 93 -440 198 -957 105 -517 193 -950 197
-962 l5 -23 587 0 586 0 564 1748 c310 961 566 1755 569 1765 4 16 -28 17
-571 17 l-576 0 -10 -34 c-150 -547 -607 -2134 -612 -2128 -3 4 -97 477 -209
1052 -111 575 -204 1053 -207 1063 -4 16 -36 17 -498 17 l-493 0 -5 -22 c-3
-13 -99 -495 -212 -1073 -180 -912 -215 -1085 -215 -1052 0 6 -549 1873 -616
2095 l-25 82 -584 0 c-462 0 -585 -3 -585 -12z"/>
<path d="M8763 11724 l-143 -76 0 -99 0 -100 143 73 143 73 430 -12 c236 -6
450 -12 477 -12 l47 -1 0 99 0 98 -137 7 c-76 3 -259 8 -408 11 -148 3 -301 8
-340 10 l-70 5 -142 -76z"/>
<path d="M8763 11324 l-143 -76 0 -100 0 -99 143 73 142 74 440 -12 c242 -7
457 -13 478 -13 l37 -1 0 99 0 98 -117 7 c-65 3 -244 8 -398 11 -154 3 -316 8
-360 10 l-80 5 -142 -76z"/>
<path d="M8763 10925 l-143 -76 0 -100 0 -101 143 75 142 74 295 -8 c162 -4
377 -10 478 -14 l182 -6 0 100 0 99 -107 6 c-60 3 -232 8 -383 11 -151 3 -318
8 -370 10 l-95 6 -142 -76z"/>
<path d="M8765 10526 l-140 -74 -3 -102 -3 -102 143 75 143 75 310 -8 c171 -5
385 -12 478 -15 l167 -6 0 100 0 99 -97 6 c-54 3 -219 8 -368 11 -148 3 -319
8 -380 11 l-110 5 -140 -75z"/>
<path d="M8765 10127 l-140 -75 -3 -891 -2 -891 620 0 620 0 0 949 0 949 -82
6 c-46 3 -204 8 -353 11 -148 3 -326 8 -395 11 l-125 5 -140 -74z"/>
<path d="M194 5158 c29 -90 275 -855 547 -1700 l494 -1538 567 0 566 0 11 48
c5 26 92 449 193 940 100 490 185 892 188 892 3 0 91 -422 196 -937 l191 -938
568 0 568 0 547 1695 547 1695 -550 3 c-303 1 -554 -1 -558 -5 -4 -5 -138
-471 -299 -1038 -161 -566 -295 -1034 -298 -1039 -3 -5 -96 456 -207 1025
l-201 1034 -476 3 c-448 2 -477 1 -482 -15 -3 -10 -93 -468 -201 -1018 -107
-550 -199 -1008 -203 -1019 -5 -12 -102 302 -305 990 -164 555 -303 1026 -309
1047 l-11 37 -568 0 -567 0 52 -162z"/>
<path d="M5695 5253 l-130 -68 -3 -98 -3 -98 139 70 139 71 364 -10 c200 -6
406 -11 457 -13 l92 -2 0 96 0 96 -207 6 c-115 4 -323 9 -463 12 l-255 6 -130
-68z"/>
<path d="M8320 5314 c-14 -2 -65 -9 -115 -15 -49 -6 -144 -25 -210 -41 -271
-68 -456 -169 -617 -336 -187 -195 -275 -395 -285 -647 -12 -288 66 -497 249
-671 172 -163 345 -244 819 -384 134 -39 287 -85 340 -101 195 -59 274 -151
220 -261 -43 -90 -141 -124 -336 -115 -252 11 -633 143 -867 300 l-68 45 -19
-26 c-10 -15 -120 -188 -246 -386 -174 -275 -224 -361 -213 -368 233 -154 540
-289 804 -352 405 -96 898 -82 1249 35 445 149 744 467 821 875 21 115 15 304
-15 419 -46 176 -153 341 -296 455 -178 141 -402 232 -920 374 -334 92 -415
138 -415 233 0 154 201 217 516 163 208 -36 471 -138 626 -242 l67 -46 206
354 c113 195 205 359 205 364 0 31 -304 190 -475 250 -111 39 -289 84 -415
106 -90 15 -545 29 -610 18z"/>
<path d="M5698 4868 l-138 -72 0 -93 c0 -51 2 -93 5 -93 3 0 65 30 138 66
l132 67 270 -7 c149 -3 354 -9 458 -13 l187 -6 0 95 0 96 -87 6 c-49 3 -216 8
-373 11 -157 3 -323 8 -370 10 l-85 5 -137 -72z"/>
<path d="M5695 4482 l-130 -70 -3 -97 c-1 -53 1 -95 5 -93 5 1 67 33 139 70
l130 67 330 -9 c181 -5 386 -11 457 -14 l127 -5 0 98 0 98 -252 7 c-139 3
-347 9 -463 12 l-210 5 -130 -69z"/>
<path d="M5698 4097 l-138 -72 0 -97 0 -98 136 72 136 71 406 -12 c224 -6 431
-11 460 -11 l52 0 0 94 0 93 -117 7 c-65 3 -253 8 -418 11 -165 3 -318 8 -340
10 -35 4 -58 -5 -177 -68z"/>
<path d="M5693 3709 l-133 -71 0 -859 0 -859 595 0 595 0 0 918 0 919 -292 7
c-161 3 -369 9 -463 11 l-170 6 -132 -72z"/>
</g>
</svg>
